<svg xmlns="http://www.w3.org/2000/svg" version="1.1" viewBox="-2.5 -5.0 55.0 67.5" width="500" height="500">
 <g>
  <path d="m15.672 56.211c-0.23828 0-0.44922 0.21094-0.44922 0.47266v4.4219c0 0.23828 0.21094 0.44531 0.44922 0.44531h4.8672v4.7617c0 0.36328 0.29297 0.65625 0.65625 0.65625 1.6094 0 2.9219 1.3203 2.9219 2.9492 0 1.6094-1.3125 2.9219-2.9219 2.9219-0.36328 0-0.65625 0.29297-0.65625 0.65625v4.0273c0 1.0586 0.875 1.9219 1.9492 1.9219h6.3398c0.28906 0 0.54297-0.19141 0.62891-0.46484 0.84375-2.7773 4.7383-2.7773 5.582 0 0.085938 0.27734 0.33984 0.46484 0.62891 0.46484h1.4609v3.1445c0 0.76172-0.25781 1.5117-0.72656 2.1094l-1.4531 1.8594c-2.1094-1.1055-4.3086 0.49609-4.3086 2.5859 0 1.6328 1.3242 2.957 2.9531 2.957 1.6328 0 2.9531-1.3242 2.9531-2.957 0-0.65234-0.25391-1.2266-0.61328-1.7148l1.5-1.9219c0.64844-0.83203 1.0039-1.8672 1.0039-2.918v-3.1445h9.6289v5.5781c-1.3047 0.30469-2.2969 1.4219-2.2969 2.8203 0 1.6328 1.3242 2.9531 2.9531 2.9531 1.6328 0 2.9531-1.3203 2.9531-2.9531 0-1.3984-0.99219-2.5156-2.2969-2.8203v-5.5781h9.6289v3.1445c0 2.1719 1.4375 3.3516 1.8125 3.957-1.6602 2.0508-0.097656 4.7852 2.2617 4.7852 1.6328 0 2.9531-1.3242 2.9531-2.9531 0-2.0703-2.1406-3.625-4.1953-2.6602-0.41797-0.64844-1.5195-1.4844-1.5195-3.1289v-3.1445h4.8047c0.33594 0 0.61328-0.25 0.65234-0.58203 0.17578-1.4844 1.4219-2.6016 2.8984-2.6016 1.4844 0 2.7188 1.1172 2.875 2.5938 0.035157 0.33594 0.31641 0.58984 0.65234 0.58984h5.2891c1.0391 0 1.9219-0.87891 1.9219-1.9219v-4.0273c0-0.36328-0.29297-0.65625-0.65625-0.65625-1.6094 0-2.9219-1.3125-2.9219-2.9219 0-1.625 1.3125-2.9492 2.9219-2.9492 0.36328 0 0.65625-0.29297 0.65625-0.65625v-3.1562h4.8945c0.23828 0 0.44922-0.21094 0.44922-0.47266v-4.4219c0-0.23828-0.21094-0.44531-0.44922-0.44531h-4.875v-3.3438c0-0.36328-0.29297-0.65625-0.65625-0.65625-0.36328 0-0.65625 0.29297-0.65625 0.65625v11.234c-2.0234 0.32031-3.5781 2.0859-3.5781 4.2109 0 2.1133 1.5547 3.8672 3.5781 4.1836v3.4219c0 0.32422-0.28125 0.60547-0.60547 0.60547h-4.7383c-0.46094-1.8516-2.1211-3.1836-4.0781-3.1836-1.9453 0-3.6133 1.332-4.0977 3.1836l-28.473 0.003906c-1.4688-3.3984-6.2891-3.4023-7.7617 0h-5.8789c-0.34375 0-0.63281-0.27734-0.63281-0.60547v-3.4219c2.0234-0.31641 3.5781-2.0742 3.5781-4.1836 0-2.125-1.5547-3.8945-3.5781-4.2109v-31.629c2.0234-0.31641 3.5781-2.0742 3.5781-4.1836 0-2.1133-1.5547-3.8672-3.5781-4.1836v-3.2422c0-0.32812 0.28906-0.60547 0.63281-0.60547h5.5781c0.31641 2.0234 2.0742 3.5781 4.1875 3.5781 2.1133 0 3.8672-1.5547 4.1836-3.5781h28.074c0.31641 2.0234 2.0742 3.5781 4.1836 3.5781 2.1133 0 3.8711-1.5547 4.1875-3.5781h4.6289c0.32422 0 0.60547 0.28125 0.60547 0.60547v3.2344c-2.0234 0.31641-3.5781 2.0742-3.5781 4.1836 0 2.1133 1.5547 3.8672 3.5781 4.1836v14.078c0 0.36328 0.29297 0.65625 0.65625 0.65625 0.36328 0 0.65625-0.29297 0.65625-0.65625v-4.4219h4.8945c0.23828 0 0.44922-0.21094 0.44922-0.47266v-4.3945c0-0.26172-0.21094-0.47266-0.44922-0.47266l-4.8906 0.003906v-4.9219c0-0.36328-0.29297-0.65625-0.65625-0.65625-1.6094 0-2.9219-1.3125-2.9219-2.9219s1.3125-2.9219 2.9219-2.9219c0.36328 0 0.65625-0.29297 0.65625-0.65625v-3.8438c0-1.0391-0.87891-1.9219-1.9219-1.9219h-5.2344c-0.36328 0-0.65625 0.29297-0.65625 0.65625 0 1.6094-1.3125 2.9219-2.9219 2.9219s-2.9219-1.3125-2.9219-2.9219c0-0.36328-0.29297-0.65625-0.65625-0.65625h-3.5156l-0.003907-2.8594c0-0.76172 0.25781-1.5117 0.72656-2.1094l1.457-1.8672c2.5664 0.51953 4.3828-2.1914 3.1406-4.3438-0.81641-1.4141-2.625-1.8984-4.0352-1.082-1.7539 1.0117-2.0469 3.5352-0.34375 4.875l-1.2539 1.6094c-0.64844 0.83203-1.0039 1.8672-1.0039 2.918v2.8594h-9.6289l-0.003906-5.5664c0.27734-0.066406 0.55469-0.125 0.81641-0.27344 1.4141-0.81641 1.8984-2.625 1.082-4.0352-0.81641-1.4141-2.625-1.8984-4.0352-1.082-2.3164 1.3359-1.8125 4.8203 0.82422 5.4219v5.5391h-9.6289l-0.003906-2.8633c0-1.0547-0.35547-2.0898-1.0039-2.918l-1.8594-2.3828c0.55469-0.89453 0.64453-2.043 0.082032-3.0195-0.81641-1.4141-2.625-1.8984-4.0352-1.082-1.4141 0.81641-1.8984 2.625-1.082 4.0352 0.81641 1.4141 2.625 1.8984 4.0352 1.082 0.03125-0.015625 0.042969-0.046875 0.074219-0.066406l1.7461 2.2383c0.46875 0.60156 0.72656 1.3477 0.72656 2.1094v2.8594h-2.5664c-0.36328 0-0.65625 0.29297-0.65625 0.65625 0 1.6094-1.3125 2.9219-2.9219 2.9219-1.6133 0-2.9219-1.3125-2.9219-2.9219 0-0.36328-0.29297-0.65625-0.65625-0.65625l-6.1836 0.007813c-1.0742 0-1.9492 0.86328-1.9492 1.9219v3.8438c0 0.36328 0.29297 0.65625 0.65625 0.65625 1.6094 0 2.9219 1.3125 2.9219 2.9219 0 1.6094-1.3125 2.9219-2.9219 2.9219-0.36328 0-0.65625 0.29297-0.65625 0.65625v3.3438l-4.8672-0.003906c-0.23828 0-0.44922 0.21094-0.44922 0.44531v4.4219c0 0.26172 0.21094 0.47266 0.44922 0.47266h4.8672v14.055z" fill="white"/>
  <path d="m60.086 33.773c-0.64063 0.16016-1.3203 0.41406-1.9844 0.625-3.9727-12.562-11.805-12.848-15.953-0.82422-5.3828-1.9531-9.7773-1.9141-11.777 0.55859-2.5039 3.0977-0.5 9.0664 4.6133 15.398-10.922 11.906-7.1602 19.707 4.9141 16.695 0.63672-0.16016 1.3203-0.41406 1.9844-0.625 3.9727 12.566 11.805 12.848 15.953 0.82422 13.461 4.875 17.129-3.5859 7.1602-15.949 1.4141-1.543 2.6523-3.0938 3.6523-4.6211 5.9531-9.0469 2.1172-14.734-8.5625-12.082zm-3.25 1.0234c-2.0703 0.74219-4.2227 1.7422-6.4062 2.918-2.4297-1.5234-4.8008-2.7422-7.0312-3.6523 3.7812-11.125 9.9609-10.367 13.438 0.73438zm1.9336 19.746c-3.1406 2.5898-5.8359 4.3672-9.1445 6.207-3.207-2.0586-5.8828-4.1836-8.4258-6.5547-0.19922-2.8906-0.21484-5.6406 0.019531-8.7422 3.1406-2.5898 5.8555-4.375 9.1445-6.207 3.1914 2.0508 5.8672 4.1758 8.4258 6.5469 0.19922 2.8984 0.21484 5.6445-0.019531 8.75zm1.4219-7.4023c1.0938 1.082 2.1094 2.1797 3.043 3.2773-0.95312 0.98828-1.9766 1.9648-3.0742 2.9297 0.11719-2.2109 0.12891-3.9297 0.03125-6.207zm-1.5938 9.2227c-0.32812 3.043-0.87891 5.8555-1.6016 8.3008-1.9336-0.80078-3.9883-1.8516-6.0859-3.1172 3.2852-1.8828 5.3281-3.3203 7.6875-5.1836zm-10.281 5.1016c-1.8867 0.98438-3.7383 1.8242-5.5273 2.4727-0.64062-2.332-1.125-4.9688-1.418-7.7969 2.1367 1.8906 4.1836 3.4883 6.9453 5.3242zm-8.5195-8.6211c-1.0938-1.0898-2.1094-2.1875-3.0312-3.2773 0.94922-0.98438 1.9727-1.957 3.0625-2.918-0.11719 2.1953-0.13281 3.9141-0.03125 6.1953zm1.5938-9.207c0.32812-3.043 0.87891-5.8555 1.6016-8.3008 1.9336 0.80078 3.9883 1.8516 6.0859 3.1172-3.1875 1.8281-5.2422 3.25-7.6875 5.1836zm10.293-5.1094c1.8828-0.98047 3.7305-1.8203 5.5195-2.4688 0.64062 2.3359 1.125 4.9727 1.418 7.8047-2.1484-1.8984-4.3008-3.582-6.9375-5.3359zm-9.9375-3.6758c-0.87109 2.8906-1.5039 6.2578-1.8086 9.9609-1.4492 1.2188-2.7891 2.4727-4.0156 3.7344-8.6641-10.836-6.7383-18.316 5.8242-13.695zm-2.1641 30.098c-11.922 2.9648-12.566-4.6992-3.7422-14.402 1.2148 1.418 2.5703 2.8477 4.0742 4.2656 0.26563 3.5039 0.8125 6.7305 1.5859 9.5312-0.64062 0.20312-1.3008 0.45312-1.918 0.60547zm3.5664 0.25c2.0742-0.74219 4.2266-1.7422 6.4062-2.918 2.4336 1.5273 4.8008 2.7344 7.0352 3.6406-3.7344 11.012-9.918 10.516-13.441-0.72266zm15.094-0.050781c0.87109-2.8906 1.5039-6.2578 1.8086-9.9609 1.4531-1.2227 2.7969-2.4805 4.0312-3.75 8.6953 10.883 6.6445 18.305-5.8398 13.711zm5.8984-15.691c-1.2305-1.4375-2.582-2.875-4.0664-4.2734-0.26562-3.5-0.8125-6.7266-1.5898-9.5312 0.64062-0.20312 1.3047-0.45312 1.9219-0.60547 9.3594-2.3281 12.484 1.9648 7.1445 10.086-0.9375 1.4258-2.0938 2.8789-3.4102 4.3242z" fill="white"/>
  <path d="m51.473 45.762c-2.1211-0.51953-4.2578 0.78906-4.7773 2.9102-0.51953 2.1172 0.76953 4.2578 2.8867 4.7773 2.1406 0.51953 4.2812-0.76953 4.8008-2.8867 0.51953-2.1211-0.76953-4.2812-2.9102-4.8008z" fill="white"/>
 </g>

</svg>