<?xml version="1.0" encoding="UTF-8"?>
<svg version="1.1" viewBox="0 0 2048 1429" width="1280" height="1280" xmlns="http://www.w3.org/2000/svg">
<path transform="translate(0)" d="m0 0h2048v1429h-2048z" fill="#FDFDFD"/>
<path transform="translate(1676,3)" d="m0 0 24 1 27 4 23 6 24 9 22 11 19 12 19 14 13 12 8 7 11 12 11 14 11 16 12 20 10 22 10 30 5 25 2 18v32l-3 25-6 31-8 32-9 29-11 30-10 23-12 26-12 23-14 24-11 18-11 17-11 16-12 17-12 16-10 13-11 14-14 17-9 11-9 10-9 11-12 13-9 11-8 8-7 8-12 13-7 8-7 7-7 8-7 7-7 8-59 59-8 7-16 15-12 11-14 12-10 9-11 9-13 11-10 8-18 14-20 15-18 13-39 26-21 13-19 11-24 13-27 13-29 12-34 12-36 10-36 8-31 5-32 4-37 3-37 2-33 1h-90l-1-1v-38l1-117 67 6 57 3 78-1 37-2 43-4 95-11 30-5 21-5 21-7 14-7 13-12 20-20 7-8 10-10 7-8 2-3-23-4-21-2h-77l-42 2h-39v-155l79-1h205l32-3 24-4 25-7 20-8 19-10 17-12 13-11 18-18 11-14 10-14-3 1h-306l-1-1v-152l1-4 4-1 24-1 116 3 59 2 42 1h90l17-2 16-5 14-6 14-9 10-8 12-12 12-17 8-15 7-19 6-22 3-19 1-10v-42l-3-25-5-25-6-20-9-21-7-13-8-12-10-13-13-15-11-10-14-11-14-10-22-13-27-13-23-9-28-9-4-1v-2l9-2z" fill="#064671"/>
<path transform="translate(1374,27)" d="m0 0h16l34 2 31 4 28 6 24 7 24 9 25 12 16 9 12 8 15 11 14 12 19 19 13 17 8 13 8 16 7 16 11 33 5 22 3 24v20l-3 17-6 15-7 9-8 7h-2l-8-48-6-25-7-21-10-19-12-17-9-11-12-13-7-7-8-7-17-13-15-10-18-10-25-11-28-9-26-6-25-4-21-2h-66l-33 3-42 6-37 7-48 11-44 12-39 12-41 14-39 15-26 11-36 16-29 14-34 17-23 13-20 11-28 17-26 16-27 18-22 15-12 9-18 13-30 23-16 13-11 9-28 24-11 10-8 7-13 12-15 14-47 47-7 8-7 7-7 8-11 12-9 11-9 10-18 22-13 16-12 16-13 17-13 18-12 17-24 36-12 19-17 28-15 26-17 33-10 24-8 24-5 23-2 16v16l3 23 5 21 8 21 11 22 8 12 9 11 9 9 16 12 18 10 20 9 24 8 25 6 33 5 26 2h49l38-3 30-4 36-7 34-8 30-9 25-8 3 1-29 11-39 12-34 9-42 9-36 6-35 4-31 2h-43l-40-3-32-5-23-5-27-8-20-8-21-10-22-14-10-8-10-9-9-9-10-13-10-16-10-21-9-25-5-18-4-25-1-10v-20l3-24 4-19 8-25 10-25 12-25 13-23 13-22 32-48 12-17 13-18 14-19 22-28 13-16 12-14 9-11 11-12 9-11 16-17 11-12 12-13 43-43 8-7 17-16 12-11 11-9 7-7 11-9 14-12 14-11 13-11 20-15 18-14 19-14 19-13 20-14 27-18 26-16 28-17 23-13 25-14 42-22 21-10 16-8 40-18 31-13 36-14 36-13 35-12 50-15 49-13 54-12 43-8 37-5 35-3z" fill="#0AAAE4"/>
<path transform="translate(1299,362)" d="m0 0h2l-2 4-13 12-20 18-24 22-15 14-17 16-16 16-8 7-39 39-7 8-10 13-10 17-9 21-6 23-4 27-4 43-6 31-5 17 1-1 17-42 4-9 4 2 15 14 10 10 9 11 10 13 12 21 8 19 5 18 2 14v24l-3 19-5 16-6 15-9 16-10 13-9 10-12 11-24 16-10 6h-2l2-4 14-19 10-16 9-19 6-21 2-12v-23l-3-16-6-16-6-11-10-13-11-10-12-7-11-5-1 5-11 24-11 21-14 22-12 16-8 10-12 14-23 23-11 9-15 12-24 16-21 12-5 1 9-24 17-43 18-46 22-56 11-29 9-28 5-21 2-13v-36l-4-17-6-15-7-9-9-8-18-12-24-14-42-24-29-16-16-10-7-8 1-5 3-3h9l24 5 21 2 19 1h16l39-2 28-4 36-8 35-10 36-12 34-13 31-13 30-14 44-22 23-13 17-9z" fill="#0AAAE4"/>
<path transform="translate(1299,362)" d="m0 0h2l-2 4-13 12-20 18-24 22-15 14-17 16-16 16-8 7-39 39-7 8-10 13-10 17-9 21-6 23-4 27-4 43-6 31-5 17 1-1 17-42 4-9 4 2 15 14 10 10 9 11 10 13 12 21 8 19 5 18 2 14v24l-3 19-5 16-6 15-9 16-10 13-9 10-12 11-24 16-10 6h-2l2-4 14-19 10-16 9-19 6-21 2-12v-23l-3-16-6-16-6-11-10-13-11-10-12-7-11-5-1 5-11 24-11 21-14 22-12 16-8 10-12 14-23 23-11 9-15 12-24 16-21 12-5 1 9-24 17-43 18-46 22-56 11-29 9-28 5-21 2-13v-36l-4-17-6-15-7-9-9-8-18-12-24-14-42-24-29-16-16-10-7-8 1-5 3-3h9l24 5 21 2 19 1h16l39-2 28-4 36-8 35-10 36-12 34-13 31-13 30-14 44-22 23-13 17-9zm-72 52-33 16-37 16-33 13-34 12-31 10-35 9-36 7-36 3h-47l-20-1-16-1 5 4 17 9 24 14 27 15 15 9 19 12 10 8 9 8 7 11 6 14 4 17 1 7v30l-4 25-7 26-12 34-42 107-17 43 1 4 18-12 13-10 14-12 16-15 15-16 11-14 11-15 11-17 9-16 10-19 11-27 8-26 6-27 3-21 4-44 5-25 8-24 8-17 10-16 9-11 11-12 16-17 12-12 8-7 15-15 8-7 20-20 7-6z" fill="#064A75"/>
<path transform="translate(1359,1158)" d="m0 0h23l15 3 16 8 9 8 9 14 3 10v25l-4 13-6 11-11 11-10 6-11 4-13 2-1 1h-22l-2-1-12-2-13-5-8-5v-2l-4-2-8-10-5-10-2-9v-20l3-12 7-13 6-7 5-4h2v-2l16-8 11-3z" fill="#010406"/>
<path transform="translate(1108,658)" d="m0 0 4 2 15 14 10 10 9 11 10 13 12 21 8 19 5 18 2 14v24l-3 19-5 16-6 15-9 16-10 13-9 10-12 11-24 16-10 6h-2l2-4 14-19 10-16 9-19 6-21 2-12v-23l-3-16-6-16-6-11-10-13-11-10-12-7-9-4 2-9 8-22 15-37z" fill="#064A75"/>
<path transform="translate(1558,1160)" d="m0 0h45l7 28 6 25 1 6v9h2l1-7 12-36 6-16 3-9h45v21l-3 91h-30l1-32 1-39 1-7h-2l-1 9-6 17-4 13-13 38h-30l-4-16-6-27-7-30-4 50-1 23h-29l1-16 5-57 2-31z" fill="#010508"/>
<path transform="translate(745,1160)" d="m0 0h70l8 2 12 5 10 9 7 14 2 7v29l-4 13-6 11-9 10-10 6-11 4-10 1h-63v-20l2-36z" fill="#010406"/>
<path transform="translate(1815,1160)" d="m0 0h42l3 6 9 16 7 14 4 6 6 11 9 18 3-67 1-4h31v14l-4 70-1 26-1 1h-40l-10-17-15-26-12-22-2-3-2 36-1 32h-32v-12l4-72z" fill="#010507"/>
<path transform="translate(1015,363)" d="m0 0h18l13 4 10 5 11 10 7 11 5 13 1 7v9l-3 15-6 12-8 10-13 9-10 4-5 1h-22l-11-4-9-5-10-9-7-9-5-12-2-9v-14l4-14 6-11 9-10 10-7 9-4z" fill="#0AAAE4"/>
<path transform="translate(162,1160)" d="m0 0h43l15 43 14 38 10 26v4h-36l-8-22-2-6h-41l-14 28h-38l2-5 9-16 8-16 12-23 8-14 8-16z" fill="#010406"/>
<path transform="translate(257,1160)" d="m0 0h71l9 3 8 4 5 4 4 7 1 4v16l-6 12-8 7-10 5 3 9 16 36v4h-36l-3-9-15-44-3-6v-2l16-2 8-3 4-8v-6l-3-5-6-2-23-1-2 76-1 12-11 1h-23v-10l2-24z" fill="#010507"/>
<path transform="translate(590,1160)" d="m0 0h70l9 2 10 6 6 7 3 8v13l-4 11-6 7-10 6-5 1 8 20 12 27v3h-37l-6-20-7-20-7-19v-2l16-2 8-4 4-7-1-8-1-3-7-2h-23l-3 87h-34v-12l2-27 2-68z" fill="#010507"/>
<path transform="translate(874,1160)" d="m0 0h90l-1 21-1 4h-54v12l-1 5h46l-1 25h-47v20l49-3h6l-1 23-1 4-51 1h-39l1-21 2-31z" fill="#010508"/>
<path transform="translate(482,1160)" d="m0 0h90l-1 24-1 1h-54v14l-1 3h46v14l-1 11h-47v20l49-3h6l-1 26-1 1h-90l1-19 2-29 2-49z" fill="#010507"/>
<path transform="translate(1105,1160)" d="m0 0h90v14l-1 11-54 1-1 16h46l-1 24-1 1h-46v19h16l33-2h6l-2 27h-90v-12l2-25z" fill="#010507"/>
<path transform="translate(373,1160)" d="m0 0h90v15l-1 10-54 1-1 16h46l-1 24-1 1h-46v19h16l33-2h6l-2 27h-90v-11l2-25 2-44z" fill="#010507"/>
<path transform="translate(1707,1160)" d="m0 0h90l-1 15-1 10h-54v12l-1 5h46v11l-1 14h-47v20l49-3h6l-1 22-1 5h-90l1-21 2-30z" fill="#010406"/>
<path transform="translate(968,1160)" d="m0 0h36l8 27 13 42 3 10 1 1 9-21 16-35 5-11 5-12 1-1h36l-2 5-23 45-30 60-1 1h-40l-5-16-10-29-14-41-6-17-2-5z" fill="#010406"/>
<path transform="translate(1452,1160)" d="m0 0h66l12 5 7 7 5 10v19l-5 12-5 6-9 6-7 3-5 1h-20l-4-14-1-8 13-1 6-3 3-6v-8l-4-4-2-1h-18l-1 5-1 38-2 44h-32v-16l2-38z" fill="#010507"/>
<path transform="translate(63,1158)" d="m0 0h26l15 2 1 25-13-1h-21l-13 4-10 9-5 10-1 6v12l4 10 3 4v2l12 6 5 1h22l15-1-2 16-1 7-4 2-12 1-2 1h-24l-9-2-13-4-10-6-10-9-6-10-4-13v-23l4-13 7-13 11-10 9-6 14-5z" fill="#010407"/>
<path transform="translate(1112,676)" d="m0 0 8 6 12 13 12 15 11 18 8 16 6 18 3 16 1 10v11l-3 19-6 20-10 21-10 14-9 11-1-2 6-16 5-19 2-13v-20l-4-22-6-16-9-16-8-10-10-10-16-10-2-1 1-5 11-28z" fill="#0AAAE4"/>
<path transform="translate(1941,1160)" d="m0 0h103v13l-1 12h-34l-1 23-2 48-1 15h-35v-12l2-28 2-46h-34v-15z" fill="#010507"/>
<path transform="translate(1214,1160)" d="m0 0h36l-2 37-2 38v11l49 1v10l-1 13-1 1h-85v-13l3-41 2-50z" fill="#010406"/>
<path transform="translate(1475,1330)" d="m0 0h16l13 4 9 6 6 7 4 9v19l-4 10-4 6-9 8-3 2-13 3h-19l-13-4-10-8-6-9-2-16 2-12 5-10h2v-2l7-6 11-5z" fill="#010608"/>
<path transform="translate(534,1333)" d="m0 0h29l6 24 3 14 2-3 7-21 5-14h29l-1 40-1 28-1 1h-17v-46l-5 17-10 28-1 1h-18l-3-9-6-29-2-3-1 6-2 34-1 1h-17v-9z" fill="#01080B"/>
<path transform="translate(385,1333)" d="m0 0h46l10 4 8 7 4 8 1 4v17l-4 11-6 9-9 6-10 2-1 1h-42l2-43z" fill="#010609"/>
<path transform="translate(1613,1333)" d="m0 0h26l10 17 7 14 7 11 2-42h20l-1 26-2 40-1 3h-25l-14-24-10-18-1 13-1 26-1 3h-20z" fill="#01070A"/>
<path transform="translate(1015,363)" d="m0 0h18l13 4 10 5 11 10 7 11 5 13 1 7v9l-3 15-6 12-8 10-13 9-10 4-5 1h-22l-11-4-9-5-10-9-7-9-5-12-2-9v-14l4-14 6-11 9-10 10-7 9-4zm1 11-12 4-10 7-7 8-5 10-2 6v17l5 14 7 9 9 8 13 5h20l13-5 9-7 7-9 5-11 1-5v-14l-4-12-6-9-5-6-11-7-10-3z" fill="#064A75"/>
<path transform="translate(840,1330)" d="m0 0h14l10 3v14l-14-1-4 4 1 4 4 8 7 8v2h2v-7h18v10l-4 11v4l9 10v2h-23l-2-5-7 4-3 2-5 1h-15l-10-4-5-6-3-6v-14l5-8 5-4h2v-2l5-3-3-7 1-9 7-8z" fill="#01070A"/>
<path transform="translate(1592,1332)" d="m0 0h11v10l-2 23-1 19-4 10-8 6-6 3-8 1h-20l-9-2-8-5-5-6-1-3v-22l2-33h22v16l-1 17v13l2 7 3 2h11l5-5 2-7 3-43z" fill="#01070A"/>
<path transform="translate(175,1333)" d="m0 0h27l9 24 15 41 1 4h-24l-6-19h-25l-9 19h-24l2-6 8-14 10-19 6-10 9-19z" fill="#01070A"/>
<path transform="translate(1363,1183)" d="m0 0h13l11 4 7 7 4 8 1 5v15l-5 14-7 7-10 5-5 1h-9l-10-3-6-4-3-3v-2h-2l-4-10-1-5v-10l4-13 8-10 9-5z" fill="#FCFDFD"/>
<path transform="translate(1010,1333)" d="m0 0h28l10 29 14 37v3h-23l-3-9-3-11-26 1-8 18-1 1h-24l6-12 12-22 13-25z" fill="#01070A"/>
<path transform="translate(325,1333)" d="m0 0h27l5 12 10 28 10 26v3h-23l-3-7-3-13-26 1-8 18-1 1h-24l4-8 10-18 8-16 7-12z" fill="#010609"/>
<path transform="translate(1277,1333)" d="m0 0h47l7 3 6 5 2 5v11l-4 8-6 5-5 2 2 6 10 22v2h-23l-9-26-3-8v-3l11-2 5-5-1-7-4-2-15-1v28l-1 25-1 1h-21l2-43z" fill="#01080B"/>
<path transform="translate(1070,1333)" d="m0 0h46l9 4 5 5 2 4v11l-4 8-6 5-5 2 2 6 10 22v2h-23l-11-32-1-5 11-2 4-3 1-7-2-3-3-1-14-1-2 53-1 1h-21l1-21z" fill="#01070B"/>
<path transform="translate(1142,1333)" d="m0 0h57l-1 15-34 1-1 11h29l-1 15h-29v12h34v10l-1 5h-57l3-48z" fill="#01070A"/>
<path transform="translate(1211,1333)" d="m0 0h57l-1 15-34 1-1 11h29l-1 15h-29l-1 12h35v10l-1 5h-56v-12z" fill="#01060A"/>
<path transform="translate(467,1333)" d="m0 0h56v14l-1 1-33 1-1 11h28v15h-30v12h35v8l-1 7h-57l1-11z" fill="#01060A"/>
<path transform="translate(783,1183)" d="m0 0h18l10 4 5 6 3 7 1 5v12l-4 14-6 9-10 5-14 2h-10l-1-1 2-60 2-2z" fill="#F9FCFD"/>
<path transform="translate(263,1330)" d="m0 0h15l11 3 1 1v13l-20-1-9 3-6 5-4 10v10l3 7 4 5 6 2h15l10-1-1 8-2 7-10 2h-19l-10-3-9-6-6-7-4-10v-18l5-12 7-8h2v-2l12-6z" fill="#01080B"/>
<path transform="translate(948,1330)" d="m0 0h16l11 3v14l-10-1h-11l-10 4-5 6-3 7v11l4 9 8 5h16l10-1-2 14-3 2-7 1h-20l-10-3-7-4v-2l-4-2-5-7-3-8v-17l4-11 6-8 11-8 9-3z" fill="#01070B"/>
<path transform="translate(694,1330)" d="m0 0h16l11 3 1 14h-7l-4-1h-11l-8 3-5 4-3 5-2 6v8l3 9 5 5 4 2h16l10-1-1 8-2 7-9 2h-18l-12-3-11-8-6-10-2-6v-16l5-13 6-7h2v-2l8-5z" fill="#01070A"/>
<path transform="translate(1729,1330)" d="m0 0h16l10 2 1 1 1 14h-7l-4-1h-11l-8 3-5 4-3 5-2 6v8l3 9 5 5 4 2h17l9-1-1 12-4 4-7 1h-20l-10-3-11-8-6-10-2-6v-15l4-12 9-10 5-4 12-5z" fill="#010609"/>
<path transform="translate(1407,1330)" d="m0 0h15l10 2 2 7v9l-10-2h-12l-8 3-5 5-4 7-1 4v8l4 9 4 4 9 3 12-1 10-1-2 13-4 3-7 1h-19l-11-3-8-5v-2h-2l-6-9-2-5-1-14 2-11 6-11 8-7 11-5z" fill="#01070A"/>
<path transform="translate(749,1330)" d="m0 0h15l10 2 2 2v13l-17-1-5 2-1 5 6 7 10 8 6 7 2 5v7l-5 10-9 6-6 1h-18l-10-2-1-1-1-14 9 1h14l4-1v-6l-5-5-5-4-5-5-7-8-2-5v-7l3-7 4-5z" fill="#01070B"/>
<path transform="translate(1802,1333)" d="m0 0h23v12l-2 35-1 7h31v14l-1 1h-53v-11l2-30z" fill="#01090D"/>
<path transform="translate(627,1333)" d="m0 0h22v15l-1 19-1 34-1 1h-22v-14z" fill="#01090C"/>
<path transform="translate(1768,1333)" d="m0 0h22v16l-2 52-1 1h-22v-14z" fill="#01080C"/>
<path transform="translate(1478,1345)" d="m0 0 11 1 6 3 5 7 1 3v14l-6 12-9 4h-11l-8-5-4-8-1-4v-8l3-9 5-6z" fill="#F8FCFD"/>
<path transform="translate(406,1348)" d="m0 0h16l6 4 3 4 1 4v10l-4 11-5 4-6 2h-13l1-36z" fill="#FAFCFD"/>
<path transform="translate(181,1186)" d="m0 0 2 1 4 14 4 13-1 3h-23l2-6 8-17z" fill="#F5FBFD"/>
<path transform="translate(834,1372)" d="m0 0h4l8 10 1 4-5 3h-8l-4-3-1-8z" fill="#EFF9FC"/>
<path transform="translate(337,1349)" d="m0 0h2l4 13v5h-14l2-6z" fill="#F0F9FC"/>
<path transform="translate(187,1349)" d="m0 0 2 2 4 13v3h-14l1-5z" fill="#F0F9FC"/>
<path transform="translate(1022,1349)" d="m0 0h2l4 14v4h-14l2-6z" fill="#F2F9FC"/>
</svg>
