<svg width="163" height="45" viewBox="0 0 163 45" fill="none" xmlns="http://www.w3.org/2000/svg">
<g clip-path="url(#clip0_31_30)">
<path d="M60.7955 29.0114C59.6818 29.0114 58.6894 28.8182 57.8182 28.4318C56.947 28.0379 56.2576 27.4583 55.75 26.6932C55.25 25.9205 55 24.9583 55 23.8068C55 22.8371 55.178 22.0227 55.5341 21.3636C55.8902 20.7045 56.375 20.1742 56.9886 19.7727C57.6023 19.3712 58.2992 19.0682 59.0795 18.8636C59.8674 18.6591 60.6932 18.5152 61.5568 18.4318C62.572 18.3258 63.3902 18.2273 64.0114 18.1364C64.6326 18.0379 65.0833 17.8939 65.3636 17.7045C65.6439 17.5152 65.7841 17.2348 65.7841 16.8636V16.7955C65.7841 16.0758 65.5568 15.5189 65.1023 15.125C64.6553 14.7311 64.0189 14.5341 63.1932 14.5341C62.322 14.5341 61.6288 14.7273 61.1136 15.1136C60.5985 15.4924 60.2576 15.9697 60.0909 16.5455L55.6136 16.1818C55.8409 15.1212 56.2879 14.2045 56.9545 13.4318C57.6212 12.6515 58.4811 12.053 59.5341 11.6364C60.5947 11.2121 61.822 11 63.2159 11C64.1856 11 65.1136 11.1136 66 11.3409C66.8939 11.5682 67.6856 11.9205 68.375 12.3977C69.072 12.875 69.6212 13.4886 70.0227 14.2386C70.4242 14.9811 70.625 15.8712 70.625 16.9091V28.6818H66.0341V26.2614H65.8977C65.6174 26.8068 65.2424 27.2879 64.7727 27.7045C64.303 28.1136 63.7386 28.4356 63.0795 28.6705C62.4205 28.8977 61.6591 29.0114 60.7955 29.0114ZM62.1818 25.6705C62.8939 25.6705 63.5227 25.5303 64.0682 25.25C64.6136 24.9621 65.0417 24.5758 65.3523 24.0909C65.6629 23.6061 65.8182 23.0568 65.8182 22.4432V20.5909C65.6667 20.6894 65.4583 20.7803 65.1932 20.8636C64.9356 20.9394 64.6439 21.0114 64.3182 21.0795C63.9924 21.1402 63.6667 21.197 63.3409 21.25C63.0152 21.2955 62.7197 21.3371 62.4545 21.375C61.8864 21.4583 61.3902 21.5909 60.9659 21.7727C60.5417 21.9545 60.2121 22.2008 59.9773 22.5114C59.7424 22.8144 59.625 23.1932 59.625 23.6477C59.625 24.3068 59.8636 24.8106 60.3409 25.1591C60.8258 25.5 61.4394 25.6705 62.1818 25.6705Z" fill="white"/>
<path d="M79.2216 18.5909V28.6818H74.3807V11.2273H78.9943V14.3068H79.1989C79.5852 13.2917 80.233 12.4886 81.142 11.8977C82.0511 11.2992 83.1534 11 84.4489 11C85.661 11 86.7178 11.2652 87.6193 11.7955C88.5208 12.3258 89.2216 13.0833 89.7216 14.0682C90.2216 15.0455 90.4716 16.2121 90.4716 17.5682V28.6818H85.6307V18.4318C85.6383 17.3636 85.3655 16.5303 84.8125 15.9318C84.2595 15.3258 83.4981 15.0227 82.5284 15.0227C81.8769 15.0227 81.3011 15.1629 80.8011 15.4432C80.3087 15.7235 79.9223 16.1326 79.642 16.6705C79.3693 17.2008 79.2292 17.8409 79.2216 18.5909Z" fill="white"/>
<path d="M102.173 29.0227C100.385 29.0227 98.8475 28.6439 97.5597 27.8864C96.2794 27.1212 95.2945 26.0606 94.6051 24.7045C93.9233 23.3485 93.5824 21.7879 93.5824 20.0227C93.5824 18.2348 93.9271 16.6667 94.6165 15.3182C95.3134 13.9621 96.3021 12.9053 97.5824 12.1477C98.8627 11.3826 100.385 11 102.151 11C103.673 11 105.007 11.2765 106.151 11.8295C107.295 12.3826 108.2 13.1591 108.866 14.1591C109.533 15.1591 109.901 16.3333 109.969 17.6818H105.401C105.272 16.8106 104.931 16.1098 104.378 15.5795C103.832 15.0417 103.116 14.7727 102.23 14.7727C101.48 14.7727 100.825 14.9773 100.264 15.3864C99.7112 15.7879 99.2794 16.375 98.9688 17.1477C98.6581 17.9205 98.5028 18.8561 98.5028 19.9545C98.5028 21.0682 98.6544 22.0152 98.9574 22.7955C99.268 23.5758 99.7036 24.1705 100.264 24.5795C100.825 24.9886 101.48 25.1932 102.23 25.1932C102.783 25.1932 103.279 25.0795 103.719 24.8523C104.166 24.625 104.533 24.2955 104.821 23.8636C105.116 23.4242 105.31 22.8977 105.401 22.2841H109.969C109.893 23.6174 109.529 24.7917 108.878 25.8068C108.234 26.8144 107.344 27.6023 106.207 28.1705C105.071 28.7386 103.726 29.0227 102.173 29.0227Z" fill="white"/>
<path d="M118.151 11.2273L115.253 28.6818H111.562L114.46 11.2273H118.151Z" fill="white"/>
<path d="M124.877 11.2273L121.979 28.6818H118.289L121.187 11.2273H124.877Z" fill="white"/>
<path d="M126.737 14.2699L127.249 11.2273H141.584L141.072 14.2699H135.729L133.342 28.6818H129.695L132.081 14.2699H126.737Z" fill="white"/>
<path d="M141.047 28.6818L143.945 11.2273H147.635L146.365 18.9233H146.595L154.146 11.2273H158.57L150.822 19.0426L155.749 28.6818H151.334L147.771 21.5057L145.572 23.7386L144.737 28.6818H141.047Z" fill="white"/>
<path d="M35 21.5C35 28.4036 29.4036 34 22.5 34C15.5964 34 10 28.4036 10 21.5C10 14.5964 15.5964 9 22.5 9C29.4036 9 35 14.5964 35 21.5Z" fill="#2B3E62"/>
<g filter="url(#filter0_d_31_30)">
<path d="M20.9979 2.58015C21.6178 2.22128 22.3822 2.22128 23.0021 2.58015L38.0103 11.2691C39.3409 12.0395 39.3409 13.9605 38.0103 14.7308L23.0019 23.4199C22.3821 23.7787 21.6176 23.7787 20.9978 23.4199L5.98963 14.7309C4.65907 13.9605 4.65908 12.0395 5.98964 11.2692L20.9979 2.58015Z" fill="url(#paint0_linear_31_30)"/>
</g>
</g>
<defs>
<filter id="filter0_d_31_30" x="0.991699" y="-0.689026" width="44.0166" height="31.3781" filterUnits="userSpaceOnUse" color-interpolation-filters="sRGB">
<feFlood flood-opacity="0" result="BackgroundImageFix"/>
<feColorMatrix in="SourceAlpha" type="matrix" values="0 0 0 0 0 0 0 0 0 0 0 0 0 0 0 0 0 0 127 0" result="hardAlpha"/>
<feOffset dx="1" dy="2"/>
<feGaussianBlur stdDeviation="2.5"/>
<feComposite in2="hardAlpha" operator="out"/>
<feColorMatrix type="matrix" values="0 0 0 0 0 0 0 0 0 0 0 0 0 0 0 0 0 0 0.2 0"/>
<feBlend mode="normal" in2="BackgroundImageFix" result="effect1_dropShadow_31_30"/>
<feBlend mode="normal" in="SourceGraphic" in2="effect1_dropShadow_31_30" result="shape"/>
</filter>
<linearGradient id="paint0_linear_31_30" x1="22" y1="2" x2="22" y2="24" gradientUnits="userSpaceOnUse">
<stop stop-color="#006BFF"/>
<stop offset="1" stop-color="#2056A1"/>
</linearGradient>
<clipPath id="clip0_31_30">
<rect width="163" height="45" fill="white"/>
</clipPath>
</defs>
</svg>
