<svg xmlns="http://www.w3.org/2000/svg" xmlns:xlink="http://www.w3.org/1999/xlink" width="500" zoomAndPan="magnify" viewBox="0 0 375 374.999991" height="500" preserveAspectRatio="xMidYMid meet" version="1.0"><defs><g/><clipPath id="b3016df92a"><path d="M 21.015625 21.015625 L 354 21.015625 L 354 354 L 21.015625 354 Z M 21.015625 21.015625 " clip-rule="nonzero"/></clipPath><clipPath id="d1cf25ead1"><path d="M 36 36 L 338.957031 36 L 338.957031 338.957031 L 36 338.957031 Z M 36 36 " clip-rule="nonzero"/></clipPath><clipPath id="cc178a6af1"><path d="M 35.957031 35.957031 L 338.957031 35.957031 L 338.957031 338.957031 L 35.957031 338.957031 Z M 35.957031 35.957031 " clip-rule="nonzero"/></clipPath><clipPath id="c87b34e184"><path d="M 167.160156 61.300781 L 209.910156 61.300781 L 209.910156 104.050781 L 167.160156 104.050781 Z M 167.160156 61.300781 " clip-rule="nonzero"/></clipPath><clipPath id="a328ad6415"><path d="M 78.058594 175.476562 L 316.054688 175.476562 L 316.054688 205.414062 L 78.058594 205.414062 Z M 78.058594 175.476562 " clip-rule="nonzero"/></clipPath></defs><g clip-path="url(#b3016df92a)"><path fill="#38b6ff" d="M 187.496094 353.980469 C 95.699219 353.980469 21.015625 279.300781 21.015625 187.5 C 21.015625 95.699219 95.699219 21.015625 187.496094 21.015625 C 279.300781 21.015625 353.980469 95.699219 353.980469 187.5 C 353.980469 279.300781 279.300781 353.980469 187.496094 353.980469 Z M 187.496094 32.65625 C 102.117188 32.65625 32.65625 102.121094 32.65625 187.5 C 32.65625 272.882812 102.117188 342.339844 187.496094 342.339844 C 272.875 342.339844 342.339844 272.882812 342.339844 187.5 C 342.339844 102.121094 272.875 32.65625 187.496094 32.65625 Z M 187.496094 32.65625 " fill-opacity="1" fill-rule="nonzero"/></g><g clip-path="url(#d1cf25ead1)"><path fill="#ffffff" d="M 338.085938 187.496094 C 338.085938 270.664062 270.664062 338.085938 187.496094 338.085938 C 104.332031 338.085938 36.910156 270.664062 36.910156 187.496094 C 36.910156 104.332031 104.332031 36.910156 187.496094 36.910156 C 270.664062 36.910156 338.085938 104.332031 338.085938 187.496094 Z M 338.085938 187.496094 " fill-opacity="1" fill-rule="nonzero"/></g><g clip-path="url(#cc178a6af1)"><path fill="#75e2ff" d="M 187.496094 35.957031 C 103.929688 35.957031 35.957031 103.929688 35.957031 187.496094 C 35.957031 271.066406 103.929688 339.039062 187.496094 339.039062 C 271.066406 339.039062 339.039062 271.066406 339.039062 187.496094 C 339.039062 103.929688 271.066406 35.957031 187.496094 35.957031 Z M 187.496094 337.132812 C 104.980469 337.132812 37.863281 270.015625 37.863281 187.496094 C 37.863281 104.980469 104.980469 37.863281 187.496094 37.863281 C 270.015625 37.863281 337.132812 104.980469 337.132812 187.496094 C 337.132812 270.015625 270.015625 337.132812 187.496094 337.132812 Z M 187.496094 337.132812 " fill-opacity="1" fill-rule="nonzero"/></g><g clip-path="url(#c87b34e184)"><path fill="#404040" d="M 201.214844 77.148438 C 199.265625 79.175781 197.261719 81.191406 195.566406 83.453125 C 195.953125 84.207031 196.65625 84.882812 197.363281 85.34375 C 199.386719 84.042969 201.148438 82.332031 203.007812 80.828125 C 203.25 80.539062 203.949219 80.246094 203.523438 79.808594 C 202.890625 78.808594 202.152344 77.847656 201.253906 77.109375 Z M 194.199219 82.675781 C 194.183594 82.679688 194.203125 82.683594 194.199219 82.675781 Z M 197.125 73.132812 C 195.40625 74.929688 194.011719 77.113281 192.441406 79.078125 C 192.007812 79.75 191.320312 80.402344 191.078125 81.128906 C 192.046875 81.789062 193.148438 82.355469 194.269531 82.671875 C 195.863281 81.367188 197.113281 79.636719 198.542969 78.132812 C 199.054688 77.453125 199.878906 76.769531 200.164062 76.015625 C 199.28125 74.960938 198.308594 73.894531 197.167969 73.101562 Z M 182.769531 71.507812 C 181.449219 72.8125 180.535156 74.542969 179.375 76.023438 C 178.4375 77.417969 177.332031 78.738281 176.519531 80.191406 C 176.816406 81.453125 177.84375 82.421875 178.480469 83.527344 C 180.566406 86.664062 182.800781 89.71875 184.691406 92.972656 C 184.757812 94.734375 184.183594 96.460938 184.023438 98.210938 C 183.78125 100.242188 183.277344 102.296875 183.210938 104.316406 C 185.765625 104.535156 188.347656 104.417969 190.910156 104.355469 C 191.335938 104.175781 191.046875 103.488281 191.214844 103.128906 C 191.496094 99.757812 191.902344 96.386719 192.054688 93.011719 C 191.640625 92.921875 190.714844 92.878906 191.003906 92.210938 C 191.257812 91.683594 192.390625 91.578125 192.082031 90.847656 C 190.640625 88.042969 188.941406 85.3125 187.328125 82.582031 C 186.953125 81.824219 186.371094 81.21875 185.539062 81.011719 C 184.734375 80.5625 183.625 80.542969 182.988281 79.851562 C 182.773438 79.003906 183.996094 79.0625 184.445312 78.765625 C 184.425781 78.046875 183.617188 77.300781 184.027344 76.605469 C 184.699219 76.289062 185.207031 77.226562 185.699219 77.539062 C 186.726562 78.683594 188.382812 78.105469 189.6875 77.988281 C 190.246094 77.816406 191.195312 77.988281 191.214844 77.167969 C 191.332031 76.445312 191.753906 75.292969 190.796875 74.949219 C 188.171875 73.742188 185.503906 72.449219 182.769531 71.507812 Z M 192.53125 68.84375 C 191.460938 69.894531 190.757812 71.308594 189.949219 72.574219 C 189.648438 72.882812 189.746094 73.140625 190.136719 73.277344 C 190.953125 73.863281 192.46875 74.140625 192.425781 75.414062 C 192.4375 75.929688 192.253906 76.582031 192.335938 77.015625 C 193.683594 75.488281 194.988281 73.886719 196.070312 72.171875 C 195.011719 70.972656 193.914062 69.742188 192.601562 68.847656 C 192.578125 68.84375 192.554688 68.835938 192.53125 68.84375 Z M 188.035156 65.753906 C 187.175781 66.132812 186.769531 67.1875 186.136719 67.863281 C 185.539062 68.785156 184.6875 69.582031 184.269531 70.597656 C 184.75 71.078125 185.636719 71.203125 186.257812 71.5625 C 186.949219 71.8125 187.667969 72.25 188.363281 72.378906 C 189.378906 71.101562 190.34375 69.722656 191.101562 68.269531 C 190.996094 67.703125 190.28125 67.402344 189.910156 66.988281 C 189.3125 66.617188 188.765625 65.839844 188.035156 65.753906 Z M 204.078125 82.558594 C 204.066406 82.566406 204.085938 82.566406 204.078125 82.558594 Z M 185.714844 75.636719 C 185.703125 75.640625 185.722656 75.644531 185.714844 75.636719 Z M 167.285156 61.023438 C 167.246094 61.023438 167.214844 61.035156 167.191406 61.0625 C 167.164062 61.097656 167.160156 61.121094 167.1875 61.175781 C 167.28125 61.386719 167.820312 62.355469 169.089844 64.617188 L 169.992188 66.230469 L 176.921875 71.800781 C 178.3125 72.917969 178.828125 73.332031 179.746094 74.070312 C 179.84375 73.933594 179.9375 73.796875 180.035156 73.660156 C 179.335938 73.105469 178.417969 72.367188 177.90625 71.964844 C 174.769531 69.460938 171.363281 66.707031 171.296875 66.617188 C 171.285156 66.597656 171.277344 66.574219 171.285156 66.5625 C 171.3125 66.53125 172.039062 66.335938 172.15625 66.332031 C 172.199219 66.328125 172.480469 66.546875 175.355469 68.835938 C 176.46875 69.722656 178.609375 71.429688 180.539062 72.972656 C 180.933594 72.449219 181.34375 71.9375 181.777344 71.445312 C 181.570312 71.285156 181.5 71.226562 181.21875 71.003906 C 180.207031 70.207031 178.058594 68.507812 176.445312 67.222656 L 173.511719 64.886719 L 173.484375 64.476562 C 173.441406 63.878906 173.441406 63.757812 173.488281 63.753906 C 173.539062 63.746094 174.796875 64.738281 182.378906 70.785156 C 182.402344 70.761719 182.425781 70.734375 182.453125 70.707031 L 182.566406 70.59375 C 182.699219 70.640625 182.835938 70.6875 182.96875 70.734375 C 182.160156 70.089844 181.085938 69.230469 180.410156 68.691406 L 172.8125 62.621094 L 172.667969 62.582031 C 172.585938 62.558594 171.734375 62.304688 170.769531 62.019531 C 168.300781 61.28125 167.394531 61.023438 167.285156 61.023438 Z M 171.019531 62.621094 C 171.109375 62.601562 172.011719 62.851562 172.488281 63.023438 C 172.707031 63.105469 172.8125 63.195312 172.839844 63.328125 C 172.863281 63.433594 172.859375 63.636719 172.828125 64.019531 C 172.800781 64.394531 172.777344 64.535156 172.699219 64.746094 C 172.644531 64.902344 172.621094 64.941406 172.492188 65.109375 C 172.335938 65.3125 172.273438 65.371094 172.046875 65.515625 C 171.695312 65.742188 170.566406 66.160156 170.449219 66.105469 C 170.417969 66.089844 170.371094 66.015625 170.285156 65.847656 C 170.21875 65.714844 170.070312 65.425781 169.953125 65.199219 C 169.695312 64.707031 169.566406 64.429688 169.578125 64.398438 C 169.582031 64.386719 169.707031 64.300781 169.851562 64.210938 C 170.199219 63.996094 170.292969 63.929688 170.429688 63.796875 C 170.628906 63.601562 170.691406 63.480469 170.914062 62.820312 C 170.972656 62.652344 170.988281 62.625 171.019531 62.621094 Z M 191.695312 78.058594 C 191.667969 78.09375 191.636719 78.125 191.609375 78.15625 C 191.65625 78.195312 191.699219 78.230469 191.75 78.273438 C 191.730469 78.203125 191.710938 78.128906 191.695312 78.058594 Z M 185.140625 78.125 C 185.195312 78.230469 185.226562 78.335938 185.242188 78.441406 C 185.691406 78.800781 186.09375 79.121094 186.910156 79.78125 C 189.316406 81.722656 189.855469 82.152344 189.886719 82.152344 C 189.917969 82.152344 190.710938 82.785156 194.296875 85.671875 C 197.613281 88.339844 198.679688 89.191406 198.695312 89.183594 C 198.714844 89.175781 199.738281 89.996094 202.921875 92.554688 L 207.121094 95.933594 L 207.589844 95.890625 C 208.082031 95.847656 208.375 95.789062 208.65625 95.695312 C 208.964844 95.59375 209.265625 95.433594 209.480469 95.246094 C 209.628906 95.117188 209.796875 94.90625 209.890625 94.734375 C 210.148438 94.265625 210.203125 93.757812 210.121094 92.707031 L 210.101562 92.402344 L 207.25 90.117188 C 206.226562 89.296875 202.890625 86.636719 200.042969 84.363281 C 199.933594 84.449219 199.820312 84.535156 199.710938 84.621094 C 201.3125 85.902344 203.070312 87.304688 204.058594 88.089844 L 207.003906 90.429688 L 207.035156 90.75 C 207.054688 90.925781 207.09375 91.152344 207.113281 91.25 C 207.136719 91.351562 207.160156 91.46875 207.160156 91.511719 C 207.164062 91.589844 207.160156 91.609375 207.132812 91.605469 C 207.082031 91.601562 206.097656 90.851562 204.226562 89.386719 C 202.886719 88.34375 200.210938 86.199219 200.195312 86.160156 C 200.1875 86.144531 199.648438 85.710938 198.976562 85.179688 C 198.449219 85.570312 197.910156 85.945312 197.363281 86.3125 C 197.148438 86.183594 196.941406 86.046875 196.742188 85.902344 C 197.835938 86.773438 199.828125 88.367188 200.691406 89.054688 C 204.195312 91.847656 205.800781 93.136719 205.808594 93.160156 C 205.832031 93.214844 205.710938 93.257812 205.25 93.347656 C 205.074219 93.382812 204.90625 93.417969 204.882812 93.421875 C 204.84375 93.433594 204.8125 93.414062 204.214844 92.953125 C 203.867188 92.6875 202.421875 91.539062 201.011719 90.410156 C 199.597656 89.277344 196.566406 86.855469 194.273438 85.027344 C 192.238281 83.402344 189.0625 80.871094 186.660156 78.953125 C 186.097656 78.832031 185.578125 78.585938 185.140625 78.125 Z M 190.761719 78.621094 C 190.5625 78.675781 190.351562 78.703125 190.144531 78.707031 C 189.507812 78.816406 188.804688 78.960938 188.109375 79.015625 C 188.960938 79.695312 189.535156 80.152344 190.332031 80.789062 C 190.375 80.601562 190.453125 80.421875 190.570312 80.269531 C 190.863281 79.902344 191.152344 79.53125 191.433594 79.152344 C 191.289062 79.039062 191 78.8125 190.761719 78.621094 Z M 193.394531 83.230469 C 194.273438 83.933594 195.351562 84.792969 196.136719 85.417969 C 195.507812 84.859375 194.980469 84.1875 194.636719 83.410156 C 194.578125 83.460938 194.523438 83.511719 194.464844 83.5625 C 194.101562 83.46875 193.746094 83.359375 193.394531 83.230469 Z M 207.820312 91.132812 C 207.871094 91.148438 208.078125 91.300781 208.738281 91.800781 C 209.417969 92.320312 209.605469 92.488281 209.667969 92.617188 C 209.707031 92.707031 209.734375 93.035156 209.722656 93.308594 C 209.707031 93.570312 209.625 93.941406 209.535156 94.152344 C 209.441406 94.363281 209.191406 94.703125 209.019531 94.847656 C 208.746094 95.085938 208.363281 95.28125 207.820312 95.460938 L 207.476562 95.574219 L 207.40625 95.535156 C 207.367188 95.511719 207.015625 95.242188 206.628906 94.9375 C 205.9375 94.402344 205.445312 93.988281 205.4375 93.9375 C 205.4375 93.925781 205.527344 93.902344 205.640625 93.890625 C 206.003906 93.847656 206.617188 93.625 206.886719 93.441406 C 207.273438 93.175781 207.5 92.882812 207.628906 92.488281 C 207.707031 92.25 207.738281 92.023438 207.765625 91.566406 C 207.777344 91.339844 207.796875 91.148438 207.804688 91.140625 C 207.804688 91.136719 207.8125 91.132812 207.820312 91.132812 Z M 188.777344 81.984375 C 188.675781 82.269531 189.234375 82.917969 189.382812 83.320312 C 191.03125 86.394531 192.9375 89.335938 194.59375 92.394531 C 194.746094 93.03125 193.9375 92.890625 193.574219 93.03125 C 193.035156 94.046875 193.253906 95.328125 193.035156 96.457031 C 192.855469 99.019531 192.371094 101.578125 192.414062 104.148438 C 192.59375 104.625 193.386719 104.304688 193.777344 104.425781 C 194.886719 104.371094 196.101562 104.570312 197.164062 104.292969 C 197.421875 101.621094 197.230469 98.910156 197.292969 96.222656 C 197.34375 95.359375 197.027344 94.359375 197.875 93.789062 C 198.847656 92.757812 199.5625 91.5625 200.09375 90.285156 C 199.210938 89.582031 198.710938 89.179688 198.703125 89.183594 C 198.683594 89.191406 197.617188 88.34375 194.300781 85.675781 C 190.714844 82.785156 189.917969 82.152344 189.886719 82.152344 C 189.878906 82.152344 189.832031 82.117188 189.730469 82.039062 C 189.414062 81.988281 189.09375 81.976562 188.777344 81.984375 Z M 201.5 83.839844 C 201.085938 84.054688 200.699219 84.308594 200.316406 84.578125 C 200.726562 84.90625 200.976562 85.109375 201.371094 85.421875 C 201.46875 84.890625 201.585938 84.34375 201.5 83.839844 Z M 201.5 83.839844 " fill-opacity="1" fill-rule="nonzero"/></g><g fill="#404040" fill-opacity="1"><g transform="translate(164.56577, 272.299641)"><g><path d="M 68.9375 -137.28125 C 60.5 -137.28125 52.523438 -135.40625 45.015625 -131.65625 C 37.515625 -127.90625 30.984375 -122.8125 25.421875 -116.375 C 19.859375 -109.945312 15.4375 -102.441406 12.15625 -93.859375 C 8.875 -85.285156 7.234375 -76.242188 7.234375 -66.734375 C 7.234375 -57.222656 8.90625 -48.175781 12.25 -39.59375 C 15.601562 -31.019531 20.09375 -23.515625 25.71875 -17.078125 C 31.351562 -10.648438 37.851562 -5.5625 45.21875 -1.8125 C 52.59375 1.9375 60.300781 3.8125 68.34375 3.8125 C 74.769531 3.8125 80.832031 2.972656 86.53125 1.296875 C 92.226562 -0.367188 97.253906 -2.941406 101.609375 -6.421875 C 105.960938 -9.910156 109.378906 -14.367188 111.859375 -19.796875 C 114.335938 -25.222656 115.578125 -31.6875 115.578125 -39.1875 L 115.578125 -46.03125 L 133.0625 -46.03125 L 133.0625 -49.25 L 73.359375 -49.25 L 73.359375 -46.03125 L 94.875 -46.03125 L 94.875 -27.140625 C 94.875 -23.921875 94.535156 -20.703125 93.859375 -17.484375 C 93.191406 -14.265625 91.921875 -11.347656 90.046875 -8.734375 C 88.171875 -6.128906 85.523438 -3.988281 82.109375 -2.3125 C 78.691406 -0.632812 74.234375 0.203125 68.734375 0.203125 C 57.078125 0.203125 48.03125 -4.414062 41.59375 -13.65625 C 35.164062 -22.90625 31.953125 -36.644531 31.953125 -54.875 L 31.953125 -79.59375 C 31.953125 -89.101562 32.859375 -97.273438 34.671875 -104.109375 C 36.484375 -110.953125 39.03125 -116.550781 42.3125 -120.90625 C 45.59375 -125.257812 49.476562 -128.472656 53.96875 -130.546875 C 58.457031 -132.628906 63.445312 -133.671875 68.9375 -133.671875 C 78.71875 -133.671875 87.09375 -130.820312 94.0625 -125.125 C 101.03125 -119.425781 106.660156 -109.742188 110.953125 -96.078125 C 111.359375 -94.867188 111.960938 -94.265625 112.765625 -94.265625 C 113.566406 -94.265625 113.96875 -94.867188 113.96875 -96.078125 L 113.96875 -134.0625 C 113.96875 -135.539062 113.429688 -136.28125 112.359375 -136.28125 C 111.691406 -136.28125 111.1875 -136.144531 110.84375 -135.875 C 110.507812 -135.601562 110.078125 -135.203125 109.546875 -134.671875 L 100.90625 -126.03125 C 97.019531 -129.507812 92.296875 -132.253906 86.734375 -134.265625 C 81.171875 -136.273438 75.238281 -137.28125 68.9375 -137.28125 Z M 68.9375 -137.28125 "/></g></g></g><g fill="#404040" fill-opacity="1"><g transform="translate(84.732253, 244.424731)"><g><path d="M 58.421875 -134.90625 L 4.421875 -134.90625 L 4.421875 -131.6875 L 21.6875 -131.6875 L 21.6875 -33.53125 C 21.6875 -26.4375 23.054688 -20.507812 25.796875 -15.75 C 28.535156 -11 32.078125 -7.148438 36.421875 -4.203125 C 40.773438 -1.265625 45.628906 0.800781 50.984375 2 C 56.335938 3.207031 61.625 3.8125 66.84375 3.8125 C 79.5625 3.8125 89.46875 0.703125 96.5625 -5.515625 C 103.65625 -11.742188 107.203125 -21.082031 107.203125 -33.53125 L 107.203125 -131.6875 L 124.46875 -131.6875 L 124.46875 -134.90625 L 86.71875 -134.90625 L 86.71875 -131.6875 L 103.984375 -131.6875 L 103.984375 -33.53125 C 103.984375 -28.175781 103.144531 -23.390625 101.46875 -19.171875 C 99.800781 -14.953125 97.492188 -11.40625 94.546875 -8.53125 C 91.609375 -5.65625 88.164062 -3.476562 84.21875 -2 C 80.269531 -0.53125 76.019531 0.203125 71.46875 0.203125 C 62.101562 0.203125 54.707031 -2.707031 49.28125 -8.53125 C 43.863281 -14.351562 41.15625 -22.6875 41.15625 -33.53125 L 41.15625 -131.6875 L 58.421875 -131.6875 Z M 58.421875 -134.90625 "/></g></g></g><g clip-path="url(#a328ad6415)"><path fill="#ffffff" d="M 78.058594 175.476562 L 316.03125 175.476562 L 316.03125 205.414062 L 78.058594 205.414062 Z M 78.058594 175.476562 " fill-opacity="1" fill-rule="nonzero"/></g><g fill="#2e8cc2" fill-opacity="1"><g transform="translate(89.65928, 196.237869)"><g><path d="M 10.109375 -2.78125 L 4.0625 -2.78125 L 2.921875 0 L -0.171875 0 L 5.625 -13 L 8.609375 -13 L 14.421875 0 L 11.265625 0 Z M 9.15625 -5.078125 L 7.09375 -10.046875 L 5.03125 -5.078125 Z M 9.15625 -5.078125 "/></g></g></g><g fill="#2e8cc2" fill-opacity="1"><g transform="translate(113.92386, 196.237869)"><g><path d="M 7.765625 0.21875 C 6.441406 0.21875 5.242188 -0.0664062 4.171875 -0.640625 C 3.097656 -1.210938 2.253906 -2.007812 1.640625 -3.03125 C 1.023438 -4.050781 0.71875 -5.207031 0.71875 -6.5 C 0.71875 -7.789062 1.023438 -8.945312 1.640625 -9.96875 C 2.253906 -10.988281 3.097656 -11.785156 4.171875 -12.359375 C 5.242188 -12.941406 6.445312 -13.234375 7.78125 -13.234375 C 8.90625 -13.234375 9.921875 -13.03125 10.828125 -12.625 C 11.742188 -12.226562 12.515625 -11.660156 13.140625 -10.921875 L 11.203125 -9.140625 C 10.328125 -10.148438 9.238281 -10.65625 7.9375 -10.65625 C 7.125 -10.65625 6.398438 -10.476562 5.765625 -10.125 C 5.140625 -9.78125 4.648438 -9.289062 4.296875 -8.65625 C 3.941406 -8.019531 3.765625 -7.300781 3.765625 -6.5 C 3.765625 -5.695312 3.941406 -4.976562 4.296875 -4.34375 C 4.648438 -3.71875 5.140625 -3.226562 5.765625 -2.875 C 6.398438 -2.519531 7.125 -2.34375 7.9375 -2.34375 C 9.238281 -2.34375 10.328125 -2.859375 11.203125 -3.890625 L 13.140625 -2.09375 C 12.515625 -1.34375 11.742188 -0.769531 10.828125 -0.375 C 9.910156 0.0195312 8.890625 0.21875 7.765625 0.21875 Z M 7.765625 0.21875 "/></g></g></g><g fill="#2e8cc2" fill-opacity="1"><g transform="translate(137.575483, 196.237869)"><g><path d="M 10.109375 -2.78125 L 4.0625 -2.78125 L 2.921875 0 L -0.171875 0 L 5.625 -13 L 8.609375 -13 L 14.421875 0 L 11.265625 0 Z M 9.15625 -5.078125 L 7.09375 -10.046875 L 5.03125 -5.078125 Z M 9.15625 -5.078125 "/></g></g></g><g fill="#2e8cc2" fill-opacity="1"><g transform="translate(161.840064, 196.237869)"><g><path d="M 1.546875 -13 L 7.453125 -13 C 8.859375 -13 10.101562 -12.726562 11.1875 -12.1875 C 12.269531 -11.65625 13.113281 -10.898438 13.71875 -9.921875 C 14.320312 -8.941406 14.625 -7.800781 14.625 -6.5 C 14.625 -5.195312 14.320312 -4.054688 13.71875 -3.078125 C 13.113281 -2.097656 12.269531 -1.335938 11.1875 -0.796875 C 10.101562 -0.265625 8.859375 0 7.453125 0 L 1.546875 0 Z M 7.296875 -2.46875 C 8.597656 -2.46875 9.632812 -2.828125 10.40625 -3.546875 C 11.1875 -4.273438 11.578125 -5.257812 11.578125 -6.5 C 11.578125 -7.738281 11.1875 -8.71875 10.40625 -9.4375 C 9.632812 -10.164062 8.597656 -10.53125 7.296875 -10.53125 L 4.546875 -10.53125 L 4.546875 -2.46875 Z M 7.296875 -2.46875 "/></g></g></g><g fill="#2e8cc2" fill-opacity="1"><g transform="translate(187.219104, 196.237869)"><g><path d="M 11.609375 -2.421875 L 11.609375 0 L 1.546875 0 L 1.546875 -13 L 11.375 -13 L 11.375 -10.59375 L 4.53125 -10.59375 L 4.53125 -7.765625 L 10.578125 -7.765625 L 10.578125 -5.421875 L 4.53125 -5.421875 L 4.53125 -2.421875 Z M 11.609375 -2.421875 "/></g></g></g><g fill="#2e8cc2" fill-opacity="1"><g transform="translate(209.719125, 196.237869)"><g><path d="M 13.375 0 L 13.359375 -7.796875 L 9.53125 -1.375 L 8.171875 -1.375 L 4.359375 -7.640625 L 4.359375 0 L 1.546875 0 L 1.546875 -13 L 4.03125 -13 L 8.90625 -4.921875 L 13.6875 -13 L 16.15625 -13 L 16.203125 0 Z M 13.375 0 "/></g></g></g><g fill="#2e8cc2" fill-opacity="1"><g transform="translate(237.494255, 196.237869)"><g><path d="M 1.546875 -13 L 4.546875 -13 L 4.546875 0 L 1.546875 0 Z M 1.546875 -13 "/></g></g></g><g fill="#2e8cc2" fill-opacity="1"><g transform="translate(253.623282, 196.237869)"><g><path d="M 7.765625 0.21875 C 6.441406 0.21875 5.242188 -0.0664062 4.171875 -0.640625 C 3.097656 -1.210938 2.253906 -2.007812 1.640625 -3.03125 C 1.023438 -4.050781 0.71875 -5.207031 0.71875 -6.5 C 0.71875 -7.789062 1.023438 -8.945312 1.640625 -9.96875 C 2.253906 -10.988281 3.097656 -11.785156 4.171875 -12.359375 C 5.242188 -12.941406 6.445312 -13.234375 7.78125 -13.234375 C 8.90625 -13.234375 9.921875 -13.03125 10.828125 -12.625 C 11.742188 -12.226562 12.515625 -11.660156 13.140625 -10.921875 L 11.203125 -9.140625 C 10.328125 -10.148438 9.238281 -10.65625 7.9375 -10.65625 C 7.125 -10.65625 6.398438 -10.476562 5.765625 -10.125 C 5.140625 -9.78125 4.648438 -9.289062 4.296875 -8.65625 C 3.941406 -8.019531 3.765625 -7.300781 3.765625 -6.5 C 3.765625 -5.695312 3.941406 -4.976562 4.296875 -4.34375 C 4.648438 -3.71875 5.140625 -3.226562 5.765625 -2.875 C 6.398438 -2.519531 7.125 -2.34375 7.9375 -2.34375 C 9.238281 -2.34375 10.328125 -2.859375 11.203125 -3.890625 L 13.140625 -2.09375 C 12.515625 -1.34375 11.742188 -0.769531 10.828125 -0.375 C 9.910156 0.0195312 8.890625 0.21875 7.765625 0.21875 Z M 7.765625 0.21875 "/></g></g></g><g fill="#2e8cc2" fill-opacity="1"><g transform="translate(277.274899, 196.237869)"><g><path d="M 5.8125 0.21875 C 4.78125 0.21875 3.785156 0.0820312 2.828125 -0.1875 C 1.867188 -0.46875 1.097656 -0.832031 0.515625 -1.28125 L 1.546875 -3.546875 C 2.097656 -3.140625 2.757812 -2.8125 3.53125 -2.5625 C 4.300781 -2.3125 5.066406 -2.1875 5.828125 -2.1875 C 6.679688 -2.1875 7.3125 -2.3125 7.71875 -2.5625 C 8.132812 -2.820312 8.34375 -3.160156 8.34375 -3.578125 C 8.34375 -3.890625 8.21875 -4.144531 7.96875 -4.34375 C 7.726562 -4.550781 7.421875 -4.71875 7.046875 -4.84375 C 6.671875 -4.96875 6.160156 -5.101562 5.515625 -5.25 C 4.523438 -5.488281 3.710938 -5.722656 3.078125 -5.953125 C 2.453125 -6.191406 1.910156 -6.570312 1.453125 -7.09375 C 1.003906 -7.613281 0.78125 -8.304688 0.78125 -9.171875 C 0.78125 -9.929688 0.984375 -10.617188 1.390625 -11.234375 C 1.796875 -11.847656 2.410156 -12.332031 3.234375 -12.6875 C 4.066406 -13.050781 5.078125 -13.234375 6.265625 -13.234375 C 7.085938 -13.234375 7.894531 -13.132812 8.6875 -12.9375 C 9.488281 -12.738281 10.1875 -12.453125 10.78125 -12.078125 L 9.84375 -9.796875 C 8.644531 -10.472656 7.445312 -10.8125 6.25 -10.8125 C 5.40625 -10.8125 4.78125 -10.675781 4.375 -10.40625 C 3.96875 -10.132812 3.765625 -9.773438 3.765625 -9.328125 C 3.765625 -8.878906 4 -8.546875 4.46875 -8.328125 C 4.9375 -8.109375 5.644531 -7.894531 6.59375 -7.6875 C 7.582031 -7.457031 8.390625 -7.222656 9.015625 -6.984375 C 9.648438 -6.742188 10.191406 -6.367188 10.640625 -5.859375 C 11.097656 -5.359375 11.328125 -4.675781 11.328125 -3.8125 C 11.328125 -3.0625 11.117188 -2.378906 10.703125 -1.765625 C 10.296875 -1.160156 9.675781 -0.675781 8.84375 -0.3125 C 8.007812 0.0390625 7 0.21875 5.8125 0.21875 Z M 5.8125 0.21875 "/></g></g></g><g fill="#2e8cc2" fill-opacity="1"><g transform="translate(299.167078, 196.237869)"><g/></g></g><g fill="#2e8cc2" fill-opacity="1"><g transform="translate(123.789671, 300.475)"><g><path d="M 0.875 -7.328125 L 2.5625 -7.328125 L 2.5625 0 L 0.875 0 Z M 0.875 -7.328125 "/></g></g></g><g fill="#2e8cc2" fill-opacity="1"><g transform="translate(134.519912, 300.475)"><g><path d="M 0.875 -7.328125 L 2.5625 -7.328125 L 2.5625 0 L 0.875 0 Z M 0.875 -7.328125 "/></g></g></g><g fill="#2e8cc2" fill-opacity="1"><g transform="translate(145.250154, 300.475)"><g><path d="M 2.390625 -5.953125 L 0.046875 -5.953125 L 0.046875 -7.328125 L 6.421875 -7.328125 L 6.421875 -5.953125 L 4.078125 -5.953125 L 4.078125 0 L 2.390625 0 Z M 2.390625 -5.953125 "/></g></g></g><g fill="#2e8cc2" fill-opacity="1"><g transform="translate(159.015207, 300.475)"><g/></g></g><g fill="#2e8cc2" fill-opacity="1"><g transform="translate(169.274525, 300.475)"><g><path d="M 3.53125 -2.875 L 2.546875 -1.859375 L 2.546875 0 L 0.875 0 L 0.875 -7.328125 L 2.546875 -7.328125 L 2.546875 -3.90625 L 5.796875 -7.328125 L 7.6875 -7.328125 L 4.640625 -4.0625 L 7.859375 0 L 5.890625 0 Z M 3.53125 -2.875 "/></g></g></g><g fill="#2e8cc2" fill-opacity="1"><g transform="translate(184.316307, 300.475)"><g><path d="M 5.6875 -1.5625 L 2.296875 -1.5625 L 1.640625 0 L -0.09375 0 L 3.171875 -7.328125 L 4.84375 -7.328125 L 8.125 0 L 6.34375 0 Z M 5.15625 -2.859375 L 4 -5.65625 L 2.84375 -2.859375 Z M 5.15625 -2.859375 "/></g></g></g><g fill="#2e8cc2" fill-opacity="1"><g transform="translate(199.630172, 300.475)"><g><path d="M 7.59375 -7.328125 L 7.59375 0 L 6.203125 0 L 2.546875 -4.453125 L 2.546875 0 L 0.875 0 L 0.875 -7.328125 L 2.265625 -7.328125 L 5.921875 -2.875 L 5.921875 -7.328125 Z M 7.59375 -7.328125 "/></g></g></g><g fill="#2e8cc2" fill-opacity="1"><g transform="translate(215.38357, 300.475)"><g><path d="M 4.046875 -7.328125 C 4.691406 -7.328125 5.253906 -7.21875 5.734375 -7 C 6.210938 -6.78125 6.578125 -6.472656 6.828125 -6.078125 C 7.085938 -5.679688 7.21875 -5.210938 7.21875 -4.671875 C 7.21875 -4.128906 7.085938 -3.65625 6.828125 -3.25 C 6.578125 -2.851562 6.210938 -2.546875 5.734375 -2.328125 C 5.253906 -2.117188 4.691406 -2.015625 4.046875 -2.015625 L 2.5625 -2.015625 L 2.5625 0 L 0.875 0 L 0.875 -7.328125 Z M 3.953125 -3.40625 C 4.453125 -3.40625 4.832031 -3.515625 5.09375 -3.734375 C 5.363281 -3.953125 5.5 -4.265625 5.5 -4.671875 C 5.5 -5.078125 5.363281 -5.390625 5.09375 -5.609375 C 4.832031 -5.835938 4.453125 -5.953125 3.953125 -5.953125 L 2.5625 -5.953125 L 2.5625 -3.40625 Z M 3.953125 -3.40625 "/></g></g></g><g fill="#2e8cc2" fill-opacity="1"><g transform="translate(230.341621, 300.475)"><g><path d="M 4.125 0.125 C 3.070312 0.125 2.253906 -0.160156 1.671875 -0.734375 C 1.097656 -1.316406 0.8125 -2.144531 0.8125 -3.21875 L 0.8125 -7.328125 L 2.5 -7.328125 L 2.5 -3.28125 C 2.5 -1.96875 3.046875 -1.3125 4.140625 -1.3125 C 4.671875 -1.3125 5.070312 -1.46875 5.34375 -1.78125 C 5.625 -2.101562 5.765625 -2.601562 5.765625 -3.28125 L 5.765625 -7.328125 L 7.4375 -7.328125 L 7.4375 -3.21875 C 7.4375 -2.144531 7.144531 -1.316406 6.5625 -0.734375 C 5.976562 -0.160156 5.164062 0.125 4.125 0.125 Z M 4.125 0.125 "/></g></g></g><g fill="#2e8cc2" fill-opacity="1"><g transform="translate(245.885718, 300.475)"><g><path d="M 5.53125 0 L 4.125 -2.046875 L 2.5625 -2.046875 L 2.5625 0 L 0.875 0 L 0.875 -7.328125 L 4.046875 -7.328125 C 4.691406 -7.328125 5.253906 -7.21875 5.734375 -7 C 6.210938 -6.78125 6.578125 -6.472656 6.828125 -6.078125 C 7.085938 -5.679688 7.21875 -5.210938 7.21875 -4.671875 C 7.21875 -4.128906 7.085938 -3.660156 6.828125 -3.265625 C 6.566406 -2.867188 6.195312 -2.566406 5.71875 -2.359375 L 7.359375 0 Z M 5.5 -4.671875 C 5.5 -5.078125 5.363281 -5.390625 5.09375 -5.609375 C 4.832031 -5.835938 4.453125 -5.953125 3.953125 -5.953125 L 2.5625 -5.953125 L 2.5625 -3.390625 L 3.953125 -3.390625 C 4.453125 -3.390625 4.832031 -3.5 5.09375 -3.71875 C 5.363281 -3.945312 5.5 -4.265625 5.5 -4.671875 Z M 5.5 -4.671875 "/></g></g></g></svg>