<svg width="77" height="40" viewBox="0 0 77 40" fill="none" xmlns="http://www.w3.org/2000/svg">
<path d="M76.4174 19.2004C76.3621 18.6911 76.2749 18.1856 76.1564 17.6872L45.4303 17.6603C45.5677 16.4753 45.8737 15.3156 46.3385 14.217C46.9729 12.6999 47.9041 11.325 49.0775 10.173C50.2329 9.05539 51.5985 8.17806 53.0953 7.59198C55.5011 6.55524 58.1696 6.29195 60.7316 6.83856C63.2935 7.38517 65.6223 8.71492 67.3954 10.6432L72.2474 5.8952C70.5274 4.04066 68.4391 2.56549 66.1163 1.56415C63.5503 0.484983 60.7878 -0.047635 58.0045 0.000182709C55.3771 -0.0157552 52.7715 0.479774 50.3334 1.45917C47.9996 2.39202 45.8722 3.77477 44.0724 5.52899C42.279 7.29924 40.844 9.39905 39.8463 11.7131C39.0269 13.6001 38.5247 15.6097 38.3595 17.6603H38.1593C37.994 15.6095 37.4908 13.5998 36.6703 11.7131C35.6735 9.39856 34.2386 7.29859 32.4445 5.52899C30.645 3.77426 28.5175 2.39143 26.1835 1.45917C21.1027 -0.524344 15.4557 -0.488466 10.4005 1.55926C8.07809 2.56122 5.98992 4.03631 4.2694 5.89032L9.12243 10.6384C10.9448 8.78445 13.2717 7.50648 15.8141 6.96405C18.3564 6.42162 21.0022 6.63837 23.4225 7.5871C24.9192 8.17282 26.2845 9.0502 27.4393 10.1682C28.6134 11.3198 29.545 12.6948 30.1793 14.2121C30.6444 15.3107 30.9503 16.4699 31.0875 17.655L0.361442 17.6823C0.242906 18.1807 0.155749 18.6857 0.100455 19.195C0.0321369 19.7835 -0.00135264 20.3755 0.000357583 20.968C-0.0131968 23.2744 0.358683 25.5672 1.10046 27.7512C1.82939 29.8704 3.00321 31.8092 4.54333 33.4372C6.22843 35.2213 8.27366 36.6268 10.5433 37.5602C13.0811 38.5718 15.795 39.068 18.5265 39.0202C21.1534 39.0362 23.7582 38.5403 26.1954 37.5602C28.5301 36.6291 30.6578 35.2456 32.4564 33.4899C34.2513 31.7209 35.6865 29.6213 36.6825 27.3063C37.1929 26.1404 37.5792 24.9237 37.8353 23.6769H38.7064C38.9627 24.9234 39.3483 26.1401 39.8573 27.3063C40.8541 29.6208 42.2892 31.7203 44.0834 33.4899C45.8824 35.2451 48.01 36.6285 50.3444 37.5602C52.7823 38.5402 55.388 39.0361 58.0155 39.0202C60.7464 39.0682 63.4594 38.5719 65.9965 37.5602C68.2665 36.6275 70.3119 35.222 71.9965 33.4372C73.5371 31.8092 74.7118 29.8705 75.4415 27.7512C76.1831 25.5671 76.5547 23.2744 76.5414 20.968C76.5343 20.3767 76.4929 19.7868 76.4174 19.2004ZM30.1725 24.8083C29.5358 26.3304 28.5944 27.7063 27.4064 28.8513C26.2386 29.9659 24.8656 30.8431 23.3634 31.4343C20.1619 32.6326 16.6383 32.6507 13.4244 31.486C12.128 30.9617 10.9355 30.2108 9.90246 29.2682C9.16673 28.5896 8.55723 27.7858 8.10241 26.8942C7.57692 25.879 7.18266 24.801 6.92931 23.6862H30.5875C30.4695 24.0675 30.3315 24.4424 30.1744 24.8093L30.1725 24.8083ZM68.4083 26.8942C67.9534 27.7857 67.3441 28.5895 66.6085 29.2682C65.5756 30.2109 64.3827 30.9618 63.0863 31.486C59.8725 32.6507 56.3488 32.6326 53.1473 31.4343C51.6451 30.8427 50.2718 29.9655 49.1034 28.8513C47.9155 27.7064 46.9746 26.3305 46.3385 24.8083C46.1805 24.4405 46.042 24.0647 45.9235 23.6823H57.8434H69.5824C69.3291 24.7987 68.9349 25.8782 68.4093 26.8952L68.4083 26.8942Z" fill="#757693"/>
</svg>
