<svg width="77" height="40" viewBox="0 0 77 40" fill="none" xmlns="http://www.w3.org/2000/svg">
<path d="M76.4076 19.2033C76.3523 18.694 76.2651 18.1885 76.1466 17.6901L45.4205 17.6633C45.5579 16.4783 45.8639 15.3186 46.3287 14.2199C46.9631 12.7028 47.8944 11.328 49.0677 10.176C50.2232 9.05832 51.5887 8.18099 53.0856 7.59491C55.4913 6.55817 58.1598 6.29488 60.7218 6.84149C63.2838 7.3881 65.6125 8.71785 67.3856 10.6462L72.2377 5.89813C70.5176 4.04359 68.4293 2.56842 66.1066 1.56708C63.5406 0.487913 60.778 -0.0447053 57.9947 0.0031124C55.3673 -0.0128255 52.7617 0.482703 50.3236 1.4621C47.9898 2.39495 45.8624 3.7777 44.0626 5.53192C42.2692 7.30217 40.8342 9.40198 39.8365 11.716C39.0171 13.603 38.5149 15.6126 38.3497 17.6633H38.1495C37.9842 15.6124 37.4811 13.6028 36.6605 11.716C35.6637 9.40149 34.2289 7.30152 32.4347 5.53192C30.6353 3.77719 28.5078 2.39436 26.1737 1.4621C21.093 -0.521414 15.4459 -0.485536 10.3907 1.56219C8.06833 2.56415 5.98015 4.03924 4.25963 5.89325L9.11266 10.6413C10.935 8.78738 13.2619 7.50941 15.8043 6.96698C18.3467 6.42455 20.9924 6.6413 23.4127 7.59003C24.9095 8.17575 26.2748 9.05313 27.4296 10.1711C28.6036 11.3227 29.5352 12.6977 30.1695 14.215C30.6346 15.3136 30.9406 16.4729 31.0777 17.6579L0.351676 17.6852C0.233141 18.1836 0.145983 18.6886 0.0906896 19.1979C0.0223712 19.7864 -0.0111183 20.3784 -0.00940804 20.9709C-0.0229625 23.2774 0.348917 25.5701 1.09069 27.7541C1.81963 29.8733 2.99344 31.8121 4.53356 33.4401C6.21866 35.2243 8.26389 36.6297 10.5336 37.5632C13.0713 38.5747 15.7852 39.071 18.5167 39.0231C21.1436 39.0391 23.7484 38.5432 26.1857 37.5632C28.5203 36.632 30.648 35.2486 32.4466 33.4929C34.2416 31.7239 35.6768 29.6242 36.6727 27.3093C37.1831 26.1433 37.5694 24.9266 37.8256 23.6799H38.6966C38.9529 24.9263 39.3385 26.143 39.8475 27.3093C40.8444 29.6238 42.2794 31.7232 44.0736 33.4929C45.8727 35.248 48.0003 36.6314 50.3346 37.5632C52.7726 38.5431 55.3782 39.039 58.0057 39.0231C60.7366 39.0711 63.4497 38.5748 65.9867 37.5632C68.2568 36.6305 70.3021 35.2249 71.9867 33.4401C73.5273 31.8121 74.702 29.8734 75.4318 27.7541C76.1733 25.57 76.5449 23.2773 76.5316 20.9709C76.5246 20.3796 76.4831 19.7897 76.4076 19.2033ZM30.1627 24.8112C29.526 26.3334 28.5846 27.7092 27.3966 28.8542C26.2289 29.9688 24.8558 30.8461 23.3536 31.4372C20.1521 32.6355 16.6285 32.6537 13.4147 31.489C12.1183 30.9646 10.9257 30.2138 9.89269 29.2712C9.15697 28.5926 8.54747 27.7887 8.09264 26.8972C7.56716 25.8819 7.17289 24.8039 6.91955 23.6891H30.5777C30.4597 24.0704 30.3217 24.4453 30.1647 24.8122L30.1627 24.8112ZM68.3986 26.8972C67.9436 27.7887 67.3344 28.5925 66.5987 29.2712C65.5658 30.2139 64.373 30.9647 63.0765 31.489C59.8627 32.6537 56.339 32.6355 53.1376 31.4372C51.6353 30.8456 50.262 29.9685 49.0936 28.8542C47.9057 27.7093 46.9648 26.3335 46.3287 24.8112C46.1708 24.4434 46.0322 24.0676 45.9137 23.6852H57.8336H69.5726C69.3193 24.8016 68.9251 25.8812 68.3995 26.8981L68.3986 26.8972Z" fill="white"/>
</svg>
