<svg width="258" height="74" viewBox="0 0 258 74" fill="none" xmlns="http://www.w3.org/2000/svg">
<path d="M29.144 0.767746C16.8085 3.35777 6.40456 12.357 2.1903 23.9023C0.302662 29.1701 -0.180222 32.6381 0.039271 38.8278C0.214865 43.4371 0.478256 44.7541 1.79521 48.6171C4.29743 55.9482 8.42389 61.7867 14.2185 66.1765C24.6224 74.1222 38.8895 76.0098 50.786 71.0493C59.6535 67.3618 67.4235 59.6357 70.8915 51.0316C72.9547 45.8515 73.4815 43.1737 73.4815 36.8962C73.4815 30.6187 72.9547 27.9409 70.8915 22.7609C68.3454 16.5273 62.902 9.94254 57.1512 6.16727C48.9422 0.767746 38.5383 -1.25158 29.144 0.767746ZM46.7034 4.58692C57.7658 8.1866 66.2821 16.9224 69.3111 27.7653C70.3208 31.365 70.8915 37.6864 70.4525 40.1008L70.1452 41.6812L60.1802 41.4617C28.0904 40.7154 26.4223 40.5398 24.0079 38.3449C21.374 35.9744 24.9736 31.4089 33.4021 26.4045C36.6945 24.4291 37.5286 23.7267 37.6164 22.8048C37.8359 20.8733 36.914 20.5221 31.6901 20.7416C27.827 20.8733 26.2028 21.1806 23.1299 22.278C13.8234 25.5265 7.45812 31.5406 4.56082 39.7935C3.90234 41.6812 3.46336 42.3835 3.28776 41.9446C2.80488 40.6276 3.02437 32.7698 3.68285 29.7847C6.36066 17.0541 16.7207 6.65015 29.6269 3.79675C34.2801 2.74318 42.1819 3.09437 46.7034 4.58692ZM67.3796 51.2511C65.6676 55.8604 58.6877 63.367 53.5077 66.2643C48.5471 68.9861 44.0256 70.303 38.5822 70.5664C34.8069 70.7859 33.8411 70.6981 33.4021 70.1713C33.0949 69.7762 31.8657 67.5813 30.6804 65.2108C28.0904 60.0747 27.8709 58.3187 29.6708 56.1677C33.0071 52.2607 41.0405 50.6804 58.9511 50.5487C67.0723 50.5048 67.643 50.5487 67.3796 51.2511Z" fill="white"/>
<path d="M51.6641 28.5117C50.4789 28.9945 48.0205 30.2237 46.1768 31.3212C43.1478 33.121 37.2654 36.0183 34.1925 37.2036C33.4023 37.5548 36.4752 37.7303 45.2988 37.9937C52.0153 38.1693 58.0294 38.301 58.6001 38.301C59.7415 38.301 67.1164 35.1842 67.1164 34.7013C67.1164 33.999 65.2727 32.8576 63.6045 32.4625C61.1901 31.9357 58.1611 32.682 52.1909 35.3159C47.5816 37.3792 46.4841 37.6864 46.4841 36.8963C46.4841 36.2378 52.5421 32.4186 55.9662 30.8822C57.5026 30.2237 58.7757 29.4335 58.7757 29.1701C58.7757 28.4678 56.8003 27.6776 55.1321 27.6776C54.3419 27.7215 52.8055 28.0727 51.6641 28.5117Z" fill="white"/>
<path d="M106.625 31.7162C106.625 45.5442 106.538 46.9051 105.791 48.6171C104.782 50.8121 103.07 51.8217 100.26 51.8217C97.67 51.8217 95.8263 51.0316 93.7192 49.0122C92.7973 48.1343 91.9632 47.4319 91.9193 47.4319C91.8754 47.4319 90.8658 48.5293 89.7683 49.9341L87.7051 52.3924L89.3293 54.0606C90.2073 54.9385 92.1388 56.2555 93.6314 56.914C95.9141 57.9675 96.8799 58.1431 100.26 58.187C106.845 58.187 110.752 56.1238 112.947 51.4266C113.825 49.4951 113.869 48.6171 114 33.0332L114.132 16.7029H110.357H106.625V31.7162Z" fill="white"/>
<path d="M240.515 23.0682V26.7996H237.881H235.247V29.653V32.5064H237.837H240.471L240.603 42.0324C240.734 51.5583 240.734 51.6022 241.92 53.6655C243.632 56.5189 246.573 57.9675 250.831 57.9675C254.08 57.9675 256.538 57.3968 257.591 56.3872C258.074 55.9482 258.118 55.5531 257.723 54.5873C257.46 53.9289 257.021 52.8314 256.801 52.1729C256.362 51.0316 256.362 51.0316 254.475 51.69C252.104 52.4802 250.041 52.129 248.856 50.6365C248.022 49.5829 247.978 48.9244 247.978 41.0227V32.5064H252.148H256.318V29.653V26.7996H252.148H248.022L247.89 23.156L247.758 19.5563L244.158 19.4246L240.515 19.2929V23.0682Z" fill="white"/>
<path d="M134.719 26.3606C133.622 26.624 131.515 27.3703 130.022 28.1165C118.609 33.7356 119.048 50.8999 130.681 56.5189C135.466 58.8016 143.455 58.3626 147.845 55.597C150.084 54.1923 152.63 51.2072 153.727 48.7928C155.001 45.9832 155.264 39.9691 154.298 36.984C152.718 32.243 149.557 28.9506 144.948 27.2386C142.138 26.185 137.485 25.7899 134.719 26.3606ZM142.621 33.2088C144.158 33.999 146.44 36.4573 147.011 37.9937C147.318 38.6961 147.538 40.5837 147.582 42.1641C147.582 45.2809 146.616 47.7392 144.728 49.4951C142.27 51.8217 137.748 52.4802 134.5 50.9877C126.335 47.3002 127.74 34.1306 136.431 32.4625C138.363 32.1113 141.129 32.4186 142.621 33.2088Z" fill="white"/>
<path d="M171.376 26.4922C163.957 28.4238 160.182 32.9892 159.83 40.3642C159.611 45.5881 160.664 48.4854 164.132 51.9095C166.196 53.9288 167.205 54.5434 169.62 55.2897C174.888 56.9139 181.121 56.2115 184.457 53.5776C185.072 53.0948 185.687 52.6997 185.862 52.6997C186.565 52.6997 185.555 57.7919 184.545 59.5478C183.053 62.0501 181.077 62.9719 176.424 63.1475C172.385 63.3231 168.303 62.3134 165.757 60.5136C164.352 59.5039 164.308 59.5039 162.42 62.8841L161.016 65.3424L163.781 66.7033C167.82 68.6787 171.156 69.3811 176.248 69.3811C182.043 69.3811 185.555 68.3275 188.452 65.8253C192.798 62.0062 193.106 60.4697 193.106 41.5933V26.3606H189.594H186.082V28.1604C186.082 29.9602 186.082 29.9602 185.116 29.2579C181.385 26.5361 175.722 25.3948 171.376 26.4922ZM181.297 33.4282C187.486 36.545 187.618 45.7637 181.516 48.9244C179.365 50.0219 175.327 50.373 173.132 49.6268C171.2 48.9683 168.742 46.9051 167.776 45.1052C166.766 43.1298 166.898 39.2228 167.996 37.0279C170.234 32.6819 176.468 30.9699 181.297 33.4282Z" fill="white"/>
<path d="M212.64 26.5363C209.611 27.3265 208.557 27.8094 206.406 29.3458C199.295 34.5698 198.373 46.3785 204.607 52.9632C207.811 56.3434 211.016 57.6604 216.679 57.8799C220.147 58.0116 221.727 57.8799 223.659 57.2653C226.468 56.3873 229.76 54.1046 229.76 53.051C229.76 52.6998 229.014 51.5585 228.136 50.5927L226.512 48.7929L224.229 50.1976C222.254 51.4268 221.464 51.6024 218.479 51.778C215.45 51.9097 214.747 51.778 212.684 50.7683C210.357 49.6269 208.47 47.5198 207.811 45.3249L207.548 44.3591H219.796H232.087L232.35 43.3495C232.702 41.9447 231.868 37.072 230.858 34.8331C229.058 30.7506 224.8 27.4582 219.971 26.4046C217.074 25.7901 215.45 25.834 212.64 26.5363ZM220.673 32.9016C222.825 33.9991 224.229 35.5355 224.932 37.6427L225.502 39.3108L216.723 39.4425C211.85 39.4864 207.811 39.4864 207.723 39.3547C207.372 39.0035 208.996 35.755 210.138 34.5259C210.796 33.8235 211.938 33.0333 212.64 32.6821C214.615 31.8041 218.742 31.9358 220.673 32.9016Z" fill="white"/>
</svg>
