<svg width="368" height="90" viewBox="0 0 368 90" fill="none" xmlns="http://www.w3.org/2000/svg">
<path d="M79.1902 0H10.7902C4.82523 0 -0.00976562 4.835 -0.00976562 10.8V79.2C-0.00976562 85.165 4.82523 90 10.7902 90H79.1902C85.1552 90 89.9902 85.165 89.9902 79.2V10.8C89.9902 4.835 85.1552 0 79.1902 0Z" fill="#8A8BA4"/>
<path fill-rule="evenodd" clip-rule="evenodd" d="M20.5802 20.05C20.831 19.799 21.1287 19.6 21.4565 19.4641C21.7842 19.3283 22.1355 19.2584 22.4902 19.2584C22.845 19.2584 23.1963 19.3283 23.524 19.4641C23.8517 19.6 24.1495 19.799 24.4002 20.05L33.4002 29.05C33.6512 29.3007 33.8503 29.5985 33.9861 29.9262C34.1219 30.254 34.1919 30.6052 34.1919 30.96C34.1919 31.3148 34.1219 31.666 33.9861 31.9938C33.8503 32.3215 33.6512 32.6193 33.4002 32.87L24.4002 41.87C23.8937 42.3766 23.2066 42.6611 22.4902 42.6611C21.7738 42.6611 21.0868 42.3766 20.5802 41.87C20.0737 41.3634 19.7891 40.6764 19.7891 39.96C19.7891 39.2436 20.0737 38.5566 20.5802 38.05L27.6722 30.96L20.5812 23.87C20.3303 23.6193 20.1312 23.3215 19.9954 22.9938C19.8595 22.666 19.7896 22.3148 19.7896 21.96C19.7896 21.6052 19.8595 21.254 19.9954 20.9262C20.1312 20.5985 20.3293 20.3007 20.5802 20.05ZM69.5812 20.05C69.8322 20.3007 70.0313 20.5985 70.1671 20.9262C70.3029 21.254 70.3729 21.6052 70.3729 21.96C70.3729 22.3148 70.3029 22.666 70.1671 22.9938C70.0313 23.3215 69.8322 23.6193 69.5812 23.87L62.4902 30.96L69.5802 38.05C70.0868 38.5563 70.3715 39.2431 70.3717 39.9593C70.3719 40.6755 70.0875 41.3624 69.5812 41.869C69.0749 42.3756 68.3881 42.6603 67.6719 42.6604C66.9557 42.6606 66.2688 42.3763 65.7622 41.87L56.7622 32.87C56.5113 32.6193 56.3122 32.3215 56.1764 31.9938C56.0405 31.666 55.9706 31.3148 55.9706 30.96C55.9706 30.6052 56.0405 30.254 56.1764 29.9262C56.3122 29.5985 56.5113 29.3007 56.7622 29.05L65.7622 20.05C66.2686 19.5438 66.9552 19.2594 67.6712 19.2594C68.3872 19.2594 69.0739 19.5438 69.5802 20.05M40.5842 37.384C41.2677 37.1706 42.008 37.2373 42.6422 37.5696C43.2764 37.9019 43.7527 38.4726 43.9662 39.156C44.0672 39.48 44.3092 39.734 44.8812 39.936C45.2039 40.0486 45.5403 40.1172 45.8812 40.14C45.9142 40.137 45.9702 40.132 46.0432 40.122C46.2212 40.097 46.4662 40.047 46.7252 39.951C47.2312 39.762 47.6622 39.457 47.9152 38.879C48.0573 38.5541 48.262 38.2604 48.5176 38.0146C48.7732 37.7688 49.0747 37.5758 49.4049 37.4465C49.7351 37.3173 50.0876 37.2543 50.4421 37.2613C50.7966 37.2682 51.1463 37.3449 51.4712 37.487C51.7961 37.6291 52.0898 37.8338 52.3356 38.0894C52.5814 38.345 52.7744 38.6465 52.9037 38.9767C53.033 39.3069 53.0959 39.6593 53.089 40.0139C53.082 40.3684 53.0053 40.7181 52.8632 41.043C51.8562 43.345 50.0372 44.48 48.6082 45.011C47.8337 45.2982 47.0222 45.4733 46.1982 45.531C46.1113 45.5363 46.0243 45.5397 45.9372 45.541H45.8922C45.8902 45.541 45.8892 45.541 45.8892 42.841C45.8892 45.541 45.8872 45.541 45.8872 45.541H45.8442C45.7565 45.5396 45.6688 45.5363 45.5812 45.531C44.7251 45.4802 43.8802 45.3099 43.0712 45.025C41.6192 44.508 39.6112 43.322 38.8112 40.766C38.7056 40.4275 38.6676 40.0715 38.6995 39.7184C38.7314 39.3652 38.8326 39.0218 38.9972 38.7078C39.1619 38.3937 39.3868 38.1152 39.6591 37.888C39.9314 37.6609 40.2457 37.4896 40.5842 37.384Z" fill="#FFFFFF"/>
<path d="M126.586 18.3681H139.14L155.952 59.4041H156.616L173.429 18.3681H185.983V75H176.139V36.0932H175.613L159.962 74.8341H152.607L136.955 36.0103H136.43V75H126.586V18.3681Z" fill="#757693"/>
<path d="M218.63 75.8296C214.372 75.8296 210.694 74.9447 207.597 73.1749C204.518 71.3868 202.15 68.8612 200.49 65.5982C198.831 62.3168 198.002 58.4547 198.002 54.0119C198.002 49.6428 198.831 45.8084 200.49 42.5086C202.168 39.1903 204.509 36.6094 207.514 34.7659C210.519 32.904 214.049 31.973 218.105 31.973C220.723 31.973 223.193 32.397 225.516 33.245C227.857 34.0746 229.922 35.365 231.71 37.1164C233.516 38.8677 234.936 41.0983 235.968 43.8082C237.001 46.4997 237.517 49.7074 237.517 53.4312V56.5006H202.703V49.7535H227.921C227.903 47.8362 227.488 46.131 226.677 44.6378C225.866 43.1261 224.732 41.9371 223.276 41.0706C221.838 40.2042 220.16 39.771 218.243 39.771C216.197 39.771 214.399 40.2687 212.851 41.2642C211.302 42.2413 210.095 43.5317 209.229 45.1355C208.381 46.7209 207.947 48.463 207.929 50.3618V56.2517C207.929 58.722 208.381 60.842 209.284 62.6118C210.187 64.3631 211.45 65.7088 213.072 66.649C214.694 67.5708 216.593 68.0316 218.769 68.0316C220.225 68.0316 221.543 67.8288 222.723 67.4233C223.903 66.9993 224.926 66.3817 225.792 65.5706C226.659 64.7594 227.313 63.7547 227.756 62.5565L237.102 63.6073C236.512 66.0775 235.388 68.2344 233.728 70.0779C232.088 71.9029 229.986 73.3224 227.424 74.3363C224.861 75.3318 221.93 75.8296 218.63 75.8296Z" fill="#757693"/>
<path d="M249.1 75V32.5261H258.806V39.6051H259.248C260.023 37.1532 261.35 35.2637 263.23 33.9363C265.129 32.5906 267.295 31.9177 269.729 31.9177C270.282 31.9177 270.899 31.9454 271.581 32.0007C272.282 32.0375 272.863 32.1021 273.323 32.1942V41.4025C272.899 41.255 272.227 41.1259 271.305 41.0153C270.402 40.8863 269.526 40.8218 268.678 40.8218C266.853 40.8218 265.212 41.2181 263.756 42.0108C262.318 42.7851 261.184 43.8635 260.355 45.2461C259.525 46.6287 259.11 48.2234 259.11 50.03V75H249.1Z" fill="#757693"/>
<path d="M293.099 18.3681V75H283.089V18.3681H293.099Z" fill="#757693"/>
<path d="M306.507 75V32.5261H316.517V75H306.507ZM311.54 26.4979C309.954 26.4979 308.59 25.9725 307.447 24.9217C306.304 23.8525 305.733 22.5712 305.733 21.078C305.733 19.5664 306.304 18.2851 307.447 17.2344C308.59 16.1651 309.954 15.6305 311.54 15.6305C313.144 15.6305 314.508 16.1651 315.632 17.2344C316.775 18.2851 317.347 19.5664 317.347 21.078C317.347 22.5712 316.775 23.8525 315.632 24.9217C314.508 25.9725 313.144 26.4979 311.54 26.4979Z" fill="#757693"/>
<path d="M339.936 50.1129V75H329.926V32.5261H339.493V39.7433H339.991C340.968 37.3652 342.526 35.4757 344.664 34.0746C346.821 32.6736 349.485 31.973 352.656 31.973C355.587 31.973 358.14 32.5998 360.315 33.8534C362.509 35.107 364.205 36.9228 365.403 39.3009C366.62 41.679 367.219 44.564 367.201 47.9561V75H357.191V49.5046C357.191 46.6656 356.453 44.4442 354.979 42.8404C353.522 41.2365 351.504 40.4346 348.923 40.4346C347.171 40.4346 345.614 40.8218 344.249 41.596C342.904 42.3519 341.844 43.4487 341.069 44.8867C340.314 46.3246 339.936 48.0667 339.936 50.1129Z" fill="#757693"/>
</svg>
