<svg width="368" height="90" viewBox="0 0 368 90" fill="none" xmlns="http://www.w3.org/2000/svg">
<path d="M79.2 0H10.8C4.835 0 0 4.835 0 10.8V79.2C0 85.165 4.835 90 10.8 90H79.2C85.165 90 90 85.165 90 79.2V10.8C90 4.835 85.165 0 79.2 0Z" fill="#FAFAF9"/>
<path fill-rule="evenodd" clip-rule="evenodd" d="M20.59 20.05C20.8407 19.799 21.1385 19.6 21.4662 19.4641C21.794 19.3283 22.1452 19.2584 22.5 19.2584C22.8548 19.2584 23.206 19.3283 23.5338 19.4641C23.8615 19.6 24.1593 19.799 24.41 20.05L33.41 29.05C33.661 29.3007 33.86 29.5985 33.9959 29.9262C34.1317 30.254 34.2016 30.6052 34.2016 30.96C34.2016 31.3148 34.1317 31.666 33.9959 31.9938C33.86 32.3215 33.661 32.6193 33.41 32.87L24.41 41.87C23.9034 42.3766 23.2164 42.6611 22.5 42.6611C21.7836 42.6611 21.0966 42.3766 20.59 41.87C20.0834 41.3634 19.7989 40.6764 19.7989 39.96C19.7989 39.2436 20.0834 38.5566 20.59 38.05L27.682 30.96L20.591 23.87C20.34 23.6193 20.141 23.3215 20.0051 22.9938C19.8693 22.666 19.7994 22.3148 19.7994 21.96C19.7994 21.6052 19.8693 21.254 20.0051 20.9262C20.141 20.5985 20.339 20.3007 20.59 20.05ZM69.591 20.05C69.842 20.3007 70.041 20.5985 70.1769 20.9262C70.3127 21.254 70.3826 21.6052 70.3826 21.96C70.3826 22.3148 70.3127 22.666 70.1769 22.9938C70.041 23.3215 69.842 23.6193 69.591 23.87L62.5 30.96L69.59 38.05C70.0966 38.5563 70.3813 39.2431 70.3814 39.9593C70.3816 40.6755 70.0973 41.3624 69.591 41.869C69.0847 42.3756 68.3979 42.6603 67.6817 42.6604C66.9655 42.6606 66.2786 42.3763 65.772 41.87L56.772 32.87C56.521 32.6193 56.3219 32.3215 56.1861 31.9938C56.0503 31.666 55.9804 31.3148 55.9804 30.96C55.9804 30.6052 56.0503 30.254 56.1861 29.9262C56.3219 29.5985 56.521 29.3007 56.772 29.05L65.772 20.05C66.2783 19.5438 66.965 19.2594 67.681 19.2594C68.397 19.2594 69.0837 19.5438 69.59 20.05M40.594 37.384C41.2775 37.1706 42.0177 37.2373 42.652 37.5696C43.2862 37.9019 43.7625 38.4726 43.976 39.156C44.077 39.48 44.319 39.734 44.891 39.936C45.2137 40.0486 45.55 40.1172 45.891 40.14C45.924 40.137 45.98 40.132 46.053 40.122C46.231 40.097 46.476 40.047 46.735 39.951C47.241 39.762 47.672 39.457 47.925 38.879C48.0671 38.5541 48.2718 38.2604 48.5274 38.0146C48.783 37.7688 49.0845 37.5758 49.4147 37.4465C49.7449 37.3173 50.0973 37.2543 50.4519 37.2613C50.8064 37.2682 51.1561 37.3449 51.481 37.487C51.8059 37.6291 52.0996 37.8338 52.3454 38.0894C52.5912 38.345 52.7842 38.6465 52.9135 38.9767C53.0427 39.3069 53.1057 39.6593 53.0987 40.0139C53.0918 40.3684 53.0151 40.7181 52.873 41.043C51.866 43.345 50.047 44.48 48.618 45.011C47.8435 45.2982 47.032 45.4733 46.208 45.531C46.1211 45.5363 46.0341 45.5397 45.947 45.541H45.902C45.9 45.541 45.899 45.541 45.899 42.841C45.899 45.541 45.897 45.541 45.897 45.541H45.854C45.7663 45.5396 45.6786 45.5363 45.591 45.531C44.7348 45.4802 43.89 45.3099 43.081 45.025C41.629 44.508 39.621 43.322 38.821 40.766C38.7153 40.4275 38.6774 40.0715 38.7093 39.7184C38.7412 39.3652 38.8424 39.0218 39.007 38.7078C39.1717 38.3937 39.3965 38.1152 39.6688 37.888C39.9411 37.6609 40.2555 37.4896 40.594 37.384Z" fill="#CACACA"/>
<path d="M126.596 18.3681H139.15L155.962 59.4041H156.626L173.439 18.3681H185.993V75H176.148V36.0932H175.623L159.972 74.8341H152.616L136.965 36.0103H136.44V75H126.596V18.3681Z" fill="white"/>
<path d="M218.64 75.8296C214.382 75.8296 210.704 74.9447 207.607 73.1749C204.528 71.3868 202.159 68.8612 200.5 65.5982C198.841 62.3168 198.011 58.4547 198.011 54.0119C198.011 49.6428 198.841 45.8084 200.5 42.5086C202.178 39.1903 204.519 36.6094 207.524 34.7659C210.529 32.904 214.059 31.973 218.115 31.973C220.732 31.973 223.203 32.397 225.525 33.245C227.867 34.0746 229.931 35.365 231.72 37.1164C233.526 38.8677 234.946 41.0983 235.978 43.8082C237.01 46.4997 237.527 49.7074 237.527 53.4312V56.5006H202.712V49.7535H227.931C227.913 47.8362 227.498 46.131 226.687 44.6378C225.876 43.1261 224.742 41.9371 223.286 41.0706C221.848 40.2042 220.17 39.771 218.253 39.771C216.207 39.771 214.409 40.2687 212.861 41.2642C211.312 42.2413 210.105 43.5317 209.238 45.1355C208.39 46.7209 207.957 48.463 207.939 50.3618V56.2517C207.939 58.722 208.39 60.842 209.294 62.6118C210.197 64.3631 211.46 65.7088 213.082 66.649C214.704 67.5708 216.603 68.0316 218.778 68.0316C220.235 68.0316 221.553 67.8288 222.733 67.4233C223.912 66.9993 224.936 66.3817 225.802 65.5706C226.668 64.7594 227.323 63.7547 227.765 62.5565L237.112 63.6073C236.522 66.0775 235.397 68.2344 233.738 70.0779C232.098 71.9029 229.996 73.3224 227.433 74.3363C224.871 75.3318 221.94 75.8296 218.64 75.8296Z" fill="white"/>
<path d="M249.11 75V32.5261H258.816V39.6051H259.258C260.033 37.1532 261.36 35.2637 263.24 33.9363C265.139 32.5906 267.305 31.9177 269.738 31.9177C270.292 31.9177 270.909 31.9454 271.591 32.0007C272.292 32.0375 272.872 32.1021 273.333 32.1942V41.4025C272.909 41.255 272.236 41.1259 271.315 41.0153C270.411 40.8863 269.536 40.8218 268.688 40.8218C266.863 40.8218 265.222 41.2181 263.766 42.0108C262.328 42.7851 261.194 43.8635 260.364 45.2461C259.535 46.6287 259.12 48.2234 259.12 50.03V75H249.11Z" fill="white"/>
<path d="M293.109 18.3681V75H283.098V18.3681H293.109Z" fill="white"/>
<path d="M306.517 75V32.5261H316.527V75H306.517ZM311.55 26.4979C309.964 26.4979 308.6 25.9725 307.457 24.9217C306.314 23.8525 305.743 22.5712 305.743 21.078C305.743 19.5664 306.314 18.2851 307.457 17.2344C308.6 16.1651 309.964 15.6305 311.55 15.6305C313.153 15.6305 314.518 16.1651 315.642 17.2344C316.785 18.2851 317.357 19.5664 317.357 21.078C317.357 22.5712 316.785 23.8525 315.642 24.9217C314.518 25.9725 313.153 26.4979 311.55 26.4979Z" fill="white"/>
<path d="M339.945 50.1129V75H329.935V32.5261H339.503V39.7433H340.001C340.978 37.3652 342.536 35.4757 344.674 34.0746C346.831 32.6736 349.495 31.973 352.665 31.973C355.597 31.973 358.15 32.5998 360.325 33.8534C362.519 35.107 364.215 36.9228 365.413 39.3009C366.63 41.679 367.229 44.564 367.211 47.9561V75H357.2V49.5046C357.2 46.6656 356.463 44.4442 354.988 42.8404C353.532 41.2365 351.513 40.4346 348.932 40.4346C347.181 40.4346 345.623 40.8218 344.259 41.596C342.913 42.3519 341.853 43.4487 341.079 44.8867C340.323 46.3246 339.945 48.0667 339.945 50.1129Z" fill="white"/>
</svg>
