<svg width="117" height="27" viewBox="0 0 117 27" fill="none" xmlns="http://www.w3.org/2000/svg">
<path d="M105.19 22.637C105.191 22.8596 105.167 23.0816 105.12 23.299C105.013 23.7658 104.793 24.1992 104.48 24.561C104.215 24.8366 103.897 25.0556 103.546 25.205C103.194 25.355 102.816 25.432 102.434 25.431C102.138 15.31 102.147 7.87404 102.465 6.39404C102.574 5.75945 102.907 5.18511 103.404 4.77536C103.901 4.36561 104.528 4.14763 105.172 4.16104L105.146 6.96004C105.459 6.22356 105.941 5.57054 106.552 5.05304C106.917 4.74805 107.325 4.49746 107.762 4.30904C108.524 3.98867 109.348 3.84015 110.174 3.87404C111.498 3.82192 112.803 4.20244 113.892 4.95804C114.875 5.68804 115.63 6.68304 116.068 7.82704C116.545 9.05804 116.785 10.368 116.774 11.688C116.8 12.8836 116.572 14.071 116.103 15.171C115.696 16.0992 115.092 16.927 114.331 17.596C113.621 18.211 112.801 18.688 111.915 19.002C111.076 19.302 110.193 19.4579 109.303 19.463C108.508 19.49 107.714 19.387 106.953 19.158C106.365 18.958 105.803 18.723 105.259 18.505L105.19 22.637ZM105.255 12.002V15.798C105.691 16.1409 106.177 16.4154 106.696 16.612C107.447 16.89 108.246 17.02 109.047 16.995C109.936 17.0152 110.813 16.778 111.571 16.312C112.299 15.846 112.885 15.19 113.265 14.414C113.679 13.571 113.887 12.641 113.874 11.702C113.88 10.8014 113.733 9.90636 113.439 9.05504C113.184 8.28604 112.709 7.61004 112.072 7.10904C111.333 6.58471 110.438 6.32536 109.534 6.37304C108.608 6.35697 107.705 6.66507 106.983 7.24404C106.223 7.87615 105.689 8.73755 105.46 9.69904C105.374 10.0609 105.317 10.4291 105.29 10.8C105.272 11.17 105.255 11.579 105.255 12.001V12.002ZM96.1697 19.515L96.1087 17.386C95.5595 18.1146 94.8156 18.673 93.9627 18.997C93.0922 19.3549 92.1608 19.5413 91.2197 19.546C90.4107 19.544 89.6087 19.397 88.8517 19.111C88.0797 18.825 87.4057 18.324 86.9097 17.666C86.3684 16.887 86.1033 15.9492 86.1567 15.002C86.1292 14.2899 86.2648 13.5809 86.553 12.9291C86.8412 12.2773 87.2744 11.6999 87.8197 11.241C88.9257 10.301 90.5027 9.83104 92.5517 9.83104L93.9797 9.87904L95.3117 9.97504L96.1517 10.066C96.1527 9.47804 96.0287 8.89604 95.7857 8.36004C95.6089 7.92375 95.3385 7.53154 94.9937 7.21104C94.6568 6.91495 94.2627 6.69131 93.8357 6.55404C93.3643 6.38929 92.8681 6.30676 92.3687 6.31004C92.1282 6.31033 91.8882 6.32938 91.6507 6.36704C91.2991 6.42481 90.9536 6.5152 90.6187 6.63704L89.9437 6.91104C88.8377 7.34604 88.5807 7.34604 88.4377 7.34604C88.1887 7.32204 87.9507 7.22704 87.7547 7.07204C87.5605 6.92088 87.4165 6.71451 87.3417 6.48004C87.2579 6.17976 87.2923 5.85879 87.4377 5.58304C87.5267 5.41304 87.6517 5.26504 87.8037 5.14804C88.3697 4.72104 89.0067 4.39704 89.6847 4.19004C90.2947 3.99804 90.9237 3.87304 91.5607 3.81604C92.4908 3.70157 93.4341 3.76057 94.3427 3.99004C95.387 4.2657 96.3516 4.78333 97.1587 5.50104C97.4409 5.74812 97.6935 6.02697 97.9117 6.33204C98.5295 7.22417 98.8356 8.29519 98.7827 9.37904L98.8127 16.697C98.8315 17.0277 98.7919 17.3591 98.6957 17.676C98.5297 18.214 98.1937 18.684 97.7387 19.016C97.2839 19.3482 96.7338 19.5243 96.1707 19.518L96.1697 19.515ZM96.0787 13.904V12.259C95.8427 12.1949 95.6001 12.1583 95.3557 12.15L94.0847 12.054L92.7227 12.006C91.8997 11.954 91.0767 12.103 90.3237 12.441C89.8366 12.681 89.4429 13.076 89.2047 13.564C89.0126 13.982 88.9117 14.4361 88.9087 14.896C88.8897 15.237 88.9547 15.578 89.0967 15.888C89.2387 16.198 89.4537 16.471 89.7227 16.68C90.3847 17.133 91.1777 17.353 91.9777 17.307C92.6776 17.3163 93.3692 17.155 93.9927 16.837C94.5825 16.5316 95.0959 16.0972 95.4947 15.566C95.8687 15.092 96.0747 14.507 96.0827 13.903L96.0787 13.904ZM36.9657 11.649L31.7417 18.871C32.0307 19.118 32.3697 19.299 32.7367 19.401C33.1027 19.5034 33.4867 19.5245 33.8617 19.463C34.3867 19.2889 34.8616 18.99 35.2457 18.592C35.5037 18.353 35.7367 18.089 35.9427 17.804L38.7587 13.803L40.2777 11.661L36.9647 11.648L36.9657 11.649Z" fill="#757693"/>
<path d="M40.2523 11.649L45.4763 18.871C45.1873 19.118 44.8483 19.299 44.4813 19.401C44.1153 19.5033 43.7314 19.5245 43.3563 19.463C42.8308 19.29 42.3557 18.9909 41.9723 18.592C41.7132 18.3532 41.4784 18.0892 41.2713 17.804L38.4543 13.803L36.9393 11.661L40.2523 11.649ZM36.9653 11.649L31.7153 4.423C31.9373 4.245 32.8383 3.578 33.8353 3.831C34.3614 4.00293 34.8368 4.30212 35.2193 4.702C35.4784 4.93973 35.712 5.20383 35.9163 5.49L38.7323 9.491L40.2513 11.633L36.9643 11.65L36.9653 11.649Z" fill="#757693"/>
<path d="M40.2525 11.6492L45.4765 4.42715C45.2545 4.24915 44.3535 3.58215 43.3565 3.83515C42.8305 4.00615 42.3545 4.30515 41.9725 4.70615C41.7123 4.94399 41.4774 5.20805 41.2715 5.49415L38.4545 9.49515L36.9395 11.6361L40.2525 11.6492ZM28.0805 15.4321C28.2735 15.4121 28.4685 15.4382 28.6485 15.5102C28.9323 15.6291 29.1607 15.8508 29.288 16.1311C29.4152 16.4113 29.4318 16.7292 29.3345 17.0212C29.2838 17.1491 29.2133 17.2682 29.1255 17.3742C28.6941 17.8438 28.1732 18.2225 27.5935 18.4882L27.4805 18.5442C27.4655 18.5462 27.4515 18.5462 27.4365 18.5442C27.0264 18.7385 26.5993 18.8945 26.1605 19.0102C25.1398 19.3274 24.0774 19.4902 23.0085 19.4932C21.6186 19.5219 20.2458 19.1824 19.0295 18.5092C17.8928 17.8608 16.963 16.9039 16.3475 15.7492C15.692 14.4865 15.3643 13.0795 15.3945 11.6571C15.3745 10.3161 15.6915 8.99115 16.3175 7.80415C16.912 6.67608 17.799 5.72866 18.8855 5.06115C20.0235 4.37015 21.3335 4.01715 22.6645 4.04215C24.1349 3.98103 25.5823 4.42145 26.7695 5.29115C27.8165 6.10861 28.6105 7.20599 29.0595 8.45615C29.5447 9.79106 29.7879 11.2018 29.7775 12.6222H18.2765C18.2869 13.4402 18.5252 14.2391 18.9645 14.9292C19.1572 15.2268 19.3867 15.4989 19.6475 15.7392C19.9235 15.9792 20.2295 16.1822 20.5575 16.3442C20.8916 16.5174 21.2395 16.6629 21.5975 16.7792C22.0082 16.901 22.4317 16.9741 22.8595 16.9972C23.5163 17.0346 24.1748 16.9654 24.8095 16.7922C25.762 16.5514 26.67 16.1606 27.4995 15.6342C27.672 15.518 27.8713 15.4474 28.0785 15.4292L28.0805 15.4321ZM18.2775 10.5172H26.8665C26.8075 9.44915 26.3865 8.43315 25.6735 7.63515C25.2903 7.2279 24.8222 6.90999 24.3023 6.70398C23.7825 6.49797 23.2236 6.40892 22.6655 6.44315C21.852 6.41958 21.0482 6.62468 20.3455 7.03515C19.7255 7.40315 19.2125 7.92715 18.8565 8.55415C18.5176 9.1563 18.3196 9.82746 18.2775 10.5172ZM82.1035 15.4321C82.2963 15.4124 82.4911 15.4392 82.6713 15.5104C82.8516 15.5815 83.0122 15.695 83.1395 15.8412C83.2744 16.0024 83.3654 16.1958 83.4036 16.4025C83.4418 16.6092 83.4259 16.8223 83.3575 17.0212C83.3068 17.1491 83.2363 17.2682 83.1485 17.3742C82.7171 17.8438 82.1962 18.2225 81.6165 18.4882L81.5035 18.5452C81.4895 18.5472 81.4745 18.5472 81.4595 18.5452C81.0495 18.7392 80.6225 18.8952 80.1835 19.0112C79.1585 19.3375 78.0902 19.5078 77.0145 19.5162C75.6245 19.5454 74.2516 19.2058 73.0355 18.5322C71.8982 17.8847 70.9681 16.9276 70.3535 15.7722C69.698 14.5095 69.3703 13.1025 69.4005 11.6802C69.3805 10.3392 69.6975 9.01415 70.3235 7.82715C70.9182 6.69945 71.8051 5.75239 72.8915 5.08515C74.0295 4.39415 75.3395 4.04115 76.6705 4.06615C78.1445 3.99483 79.5987 4.42798 80.7935 5.29415C81.8405 6.11161 82.6345 7.20899 83.0835 8.45915C83.5687 9.79406 83.8119 11.2048 83.8015 12.6252H72.3005C72.3082 13.4436 72.5467 14.2432 72.9885 14.9321C73.1812 15.2298 73.4107 15.5019 73.6715 15.7422C73.9475 15.9822 74.2535 16.1852 74.5815 16.3472C74.916 16.5205 75.2641 16.666 75.6225 16.7822C76.0319 16.9037 76.4541 16.9768 76.8805 17.0002C77.539 17.038 78.1992 16.9687 78.8355 16.7952C79.788 16.5544 80.696 16.1635 81.5255 15.6371C81.6981 15.521 81.8963 15.4504 82.1035 15.4321ZM72.3005 10.5172H80.8895C80.8284 9.4494 80.4079 8.43372 79.6965 7.63515C79.3125 7.22815 78.8445 6.91115 78.3245 6.70415C77.8049 6.49818 77.2464 6.40874 76.6885 6.44215C75.875 6.41858 75.0712 6.62368 74.3685 7.03415C73.7485 7.40215 73.2355 7.92615 72.8795 8.55315C72.5389 9.15461 72.3409 9.82615 72.3005 10.5161V10.5172Z" fill="#757693"/>
<path d="M20.1143 26.5332H20.1453" stroke="#757693" stroke-width="0.109" stroke-miterlimit="10"/>
<path d="M48.1095 14.5829L48.0225 3.12991V2.97791C48.0277 2.76861 48.0512 2.56016 48.0925 2.35491C48.2245 1.61691 48.6305 0.95591 49.2285 0.50491C49.6965 0.17691 50.2545 0.00291054 50.8265 0.00391054L50.7875 7.71791L50.9055 15.7019C50.9255 15.8899 50.9815 16.0709 51.0705 16.2369C51.1405 16.3549 51.2285 16.4599 51.3315 16.5499C51.4283 16.6315 51.5352 16.7004 51.6495 16.7549C51.9544 16.8893 52.2924 16.9301 52.6205 16.8719C52.7688 16.8424 52.9143 16.8002 53.0555 16.7459C53.5314 16.5899 53.9873 16.3781 54.4135 16.1149L54.8185 15.8579L54.8925 15.8149C54.9889 15.7632 55.0913 15.7235 55.1975 15.6969C55.3808 15.6557 55.5711 15.6557 55.7545 15.6969C55.9845 15.7599 56.1925 15.8889 56.3505 16.0669C56.4911 16.225 56.5853 16.4188 56.6229 16.627C56.6605 16.8351 56.6399 17.0497 56.5635 17.2469C56.5155 17.4039 56.3545 17.7869 55.4275 18.3699C54.8497 18.7404 54.2225 19.0276 53.5645 19.2229C53.1004 19.373 52.6193 19.4637 52.1325 19.4929C51.8105 19.4929 50.2645 19.5499 49.2075 18.4829C48.2585 17.5249 48.1805 16.1449 48.1235 15.1139L48.1095 14.5829Z" fill="#757693"/>
<path d="M49.9245 6.338L51.9925 6.264C52.7495 6.267 53.4795 5.982 54.0345 5.467C54.4806 5.02272 54.7394 4.42432 54.7575 3.795H49.9685L49.9245 6.337V6.338ZM59.5025 14.583L59.4155 3.13V2.978C59.4164 2.76842 59.4398 2.55954 59.4855 2.355C59.6155 1.616 60.0225 0.955 60.6215 0.505C61.0875 0.176 61.6445 0 62.2145 0L62.1755 7.714L62.2935 15.698C62.3135 15.8853 62.3695 16.067 62.4585 16.233C62.5272 16.3502 62.6139 16.4558 62.7155 16.546C62.814 16.6274 62.9221 16.6963 63.0375 16.751C63.3405 16.886 63.677 16.9271 64.0035 16.869C64.152 16.84 64.2976 16.7979 64.4385 16.743C64.9155 16.586 65.3725 16.374 65.8015 16.112C65.9105 16.034 66.0105 15.977 66.2025 15.855L66.2805 15.811C66.4116 15.7368 66.556 15.6894 66.7055 15.6714C66.855 15.6533 67.0066 15.6651 67.1516 15.706C67.3826 15.768 67.5895 15.897 67.7475 16.076C67.8712 16.2156 67.9594 16.383 68.0045 16.564C68.0599 16.7935 68.0463 17.0342 67.9655 17.256C67.9135 17.413 67.7565 17.796 66.8295 18.379C66.2466 18.7467 65.6152 19.0311 64.9535 19.224C64.491 19.3745 64.0111 19.4652 63.5255 19.494C63.1995 19.494 61.6535 19.55 60.6005 18.484C59.6475 17.526 59.5735 16.146 59.5125 15.115L59.5035 14.584L59.5025 14.583ZM2.67054 18.688C2.52254 18.983 2.28054 19.221 1.98254 19.363C1.77154 19.469 1.53554 19.517 1.29954 19.503C1.06354 19.489 0.835545 19.413 0.638545 19.283C0.441545 19.153 0.281545 18.973 0.176545 18.761C0.0715449 18.549 0.0225448 18.314 0.0375448 18.078C-0.0584552 12.571 0.00754489 8.527 0.0945449 7.352C0.13848 6.6884 0.325783 6.04222 0.643545 5.458C0.851731 5.03061 1.17612 4.67051 1.57954 4.419C1.98254 4.168 2.44854 4.034 2.92454 4.035L2.84654 6.373C2.95954 6.146 3.09354 5.931 3.24754 5.729C3.85654 4.975 4.66554 4.409 5.58154 4.095C6.49754 3.781 7.48455 3.732 8.42755 3.953C9.42826 4.13414 10.3603 4.5858 11.1225 5.259C11.5055 5.597 11.8345 5.992 12.0975 6.43C12.7415 7.523 12.7725 8.607 12.8205 10.396V11.998C12.8555 13.435 12.8645 14.91 12.8205 16.425C12.8205 17.296 12.7775 18.092 12.2155 18.667C11.8246 19.057 11.3201 19.3129 10.7745 19.398C10.5708 19.4253 10.3643 19.4253 10.1605 19.398C10.2345 14.218 10.1995 10.396 10.1215 9.386C10.0997 8.48675 9.73727 7.62932 9.10754 6.987C8.39845 6.32109 7.46808 5.94103 6.49554 5.92C5.97554 5.938 5.46454 6.064 4.99454 6.288C4.52468 6.51227 4.10652 6.83169 3.76654 7.226C3.50417 7.51802 3.29501 7.85377 3.14854 8.218C2.99231 8.61335 2.90962 9.03393 2.90454 9.459L2.82154 18.087C2.81733 18.2958 2.76678 18.5011 2.67354 18.688H2.67054Z" fill="#757693"/>
</svg>
