<svg width="118" height="27" viewBox="0 0 118 27" fill="none" xmlns="http://www.w3.org/2000/svg">
<path d="M105.55 22.901C105.551 23.1235 105.527 23.3456 105.48 23.563C105.373 24.0297 105.153 24.4631 104.84 24.825C104.575 25.1005 104.257 25.3195 103.906 25.469C103.554 25.619 103.176 25.696 102.794 25.695C102.498 15.574 102.507 8.13796 102.825 6.65796C102.934 6.02337 103.267 5.44903 103.764 5.03927C104.261 4.62952 104.888 4.41155 105.532 4.42496L105.506 7.22396C105.819 6.48747 106.301 5.83446 106.912 5.31696C107.277 5.01196 107.685 4.76137 108.122 4.57296C108.884 4.25259 109.707 4.10407 110.534 4.13796C111.858 4.08583 113.163 4.46635 114.252 5.22196C115.235 5.95196 115.99 6.94696 116.428 8.09096C116.905 9.32196 117.145 10.632 117.134 11.952C117.16 13.1475 116.932 14.335 116.463 15.435C116.056 16.3631 115.451 17.1909 114.691 17.86C113.981 18.475 113.161 18.952 112.275 19.266C111.436 19.5659 110.553 19.7218 109.663 19.727C108.868 19.754 108.074 19.6509 107.313 19.422C106.725 19.222 106.163 18.987 105.619 18.769L105.55 22.901ZM105.615 12.266V16.062C106.051 16.4048 106.537 16.6793 107.056 16.876C107.807 17.1539 108.606 17.2839 109.407 17.259C110.296 17.2791 111.173 17.0419 111.931 16.576C112.659 16.11 113.245 15.454 113.625 14.678C114.039 13.835 114.247 12.905 114.234 11.966C114.24 11.0654 114.092 10.1703 113.799 9.31896C113.544 8.54996 113.069 7.87396 112.432 7.37296C111.693 6.84863 110.798 6.58927 109.894 6.63696C108.968 6.62088 108.065 6.92899 107.343 7.50796C106.583 8.14007 106.048 9.00146 105.82 9.96296C105.734 10.3248 105.677 10.693 105.65 11.064C105.632 11.434 105.615 11.843 105.615 12.265V12.266ZM96.5296 19.779L96.4686 17.65C95.9194 18.3785 95.1754 18.937 94.3226 19.261C93.4521 19.6188 92.5207 19.8052 91.5796 19.81C90.7706 19.808 89.9686 19.661 89.2116 19.375C88.4396 19.089 87.7656 18.588 87.2696 17.93C86.7283 17.1509 86.4632 16.2131 86.5166 15.266C86.4891 14.5538 86.6246 13.8448 86.9128 13.193C87.201 12.5412 87.6343 11.9639 88.1796 11.505C89.2856 10.565 90.8626 10.095 92.9116 10.095L94.3396 10.143L95.6716 10.239L96.5116 10.33C96.5126 9.74196 96.3886 9.15996 96.1456 8.62396C95.9687 8.18766 95.6984 7.79546 95.3536 7.47496C95.0167 7.17886 94.6225 6.95523 94.1956 6.81796C93.7241 6.65321 93.2279 6.57068 92.7286 6.57396C92.4881 6.57424 92.2481 6.5933 92.0106 6.63096C91.6589 6.68873 91.3134 6.77912 90.9786 6.90096L90.3036 7.17496C89.1976 7.60996 88.9406 7.60996 88.7976 7.60996C88.5486 7.58596 88.3106 7.49096 88.1146 7.33596C87.9203 7.1848 87.7764 6.97843 87.7016 6.74396C87.6178 6.44367 87.6521 6.12271 87.7976 5.84696C87.8866 5.67696 88.0116 5.52896 88.1636 5.41196C88.7296 4.98496 89.3666 4.66096 90.0446 4.45396C90.6546 4.26196 91.2836 4.13696 91.9206 4.07996C92.8507 3.96548 93.794 4.02448 94.7026 4.25396C95.7468 4.52961 96.7115 5.04724 97.5186 5.76496C97.8007 6.01204 98.0534 6.29088 98.2716 6.59596C98.8893 7.48809 99.1955 8.55911 99.1426 9.64296L99.1726 16.961C99.1914 17.2916 99.1518 17.623 99.0556 17.94C98.8896 18.478 98.5536 18.948 98.0986 19.28C97.6437 19.6121 97.0937 19.7882 96.5306 19.782L96.5296 19.779ZM96.4386 14.168V12.523C96.2026 12.4588 95.96 12.4222 95.7156 12.414L94.4446 12.318L93.0826 12.27C92.2596 12.218 91.4366 12.367 90.6836 12.705C90.1964 12.9449 89.8028 13.34 89.5646 13.828C89.3725 14.2459 89.2716 14.7 89.2686 15.16C89.2496 15.501 89.3146 15.842 89.4566 16.152C89.5986 16.462 89.8136 16.735 90.0826 16.944C90.7446 17.397 91.5376 17.617 92.3376 17.571C93.0374 17.5802 93.729 17.4189 94.3526 17.101C94.9424 16.7955 95.4557 16.3611 95.8546 15.83C96.2286 15.356 96.4346 14.771 96.4426 14.167L96.4386 14.168ZM37.3256 11.913L32.1016 19.135C32.3906 19.382 32.7296 19.563 33.0966 19.665C33.4626 19.7673 33.8465 19.7884 34.2216 19.727C34.7465 19.5528 35.2215 19.2539 35.6056 18.856C35.8636 18.617 36.0966 18.353 36.3026 18.068L39.1186 14.067L40.6376 11.925L37.3246 11.912L37.3256 11.913Z" fill="white"/>
<path d="M40.6132 11.9129L45.8372 19.1349C45.5482 19.3819 45.2092 19.5629 44.8422 19.6649C44.4762 19.7672 44.0922 19.7884 43.7172 19.7269C43.1917 19.5539 42.7165 19.2548 42.3332 18.8559C42.074 18.6171 41.8392 18.3531 41.6322 18.0679L38.8152 14.0669L37.3002 11.9249L40.6132 11.9129ZM37.3262 11.9129L32.0762 4.68692C32.2982 4.50892 33.1992 3.84192 34.1962 4.09492C34.7222 4.26684 35.1976 4.56604 35.5802 4.96592C35.8393 5.20365 36.0728 5.46774 36.2772 5.75392L39.0932 9.75492L40.6122 11.8969L37.3252 11.9139L37.3262 11.9129Z" fill="white"/>
<path d="M40.6128 11.9131L45.8368 4.69107C45.6148 4.51307 44.7138 3.84607 43.7168 4.09907C43.1908 4.27007 42.7148 4.56907 42.3328 4.97007C42.0727 5.2079 41.8378 5.47197 41.6318 5.75807L38.8148 9.75907L37.2998 11.9001L40.6128 11.9131ZM28.4408 15.6961C28.6338 15.6761 28.8288 15.7021 29.0088 15.7741C29.2927 15.893 29.5211 16.1148 29.6483 16.395C29.7755 16.6752 29.7921 16.9931 29.6948 17.2851C29.6441 17.413 29.5736 17.5321 29.4858 17.6381C29.0544 18.1077 28.5336 18.4864 27.9538 18.7521L27.8408 18.8081C27.8258 18.8101 27.8118 18.8101 27.7968 18.8081C27.3868 19.0024 26.9596 19.1584 26.5208 19.2741C25.5001 19.5913 24.4377 19.7541 23.3688 19.7571C21.9789 19.7858 20.6062 19.4463 19.3898 18.7731C18.2532 18.1247 17.3233 17.1678 16.7078 16.0131C16.0524 14.7505 15.7247 13.3434 15.7548 11.9211C15.7348 10.5801 16.0518 9.25507 16.6778 8.06807C17.2724 6.93999 18.1594 5.99258 19.2458 5.32507C20.3838 4.63407 21.6938 4.28107 23.0248 4.30607C24.4952 4.24494 25.9427 4.68536 27.1298 5.55507C28.1769 6.37253 28.9709 7.4699 29.4198 8.72007C29.9051 10.055 30.1482 11.4657 30.1378 12.8861H18.6368C18.6473 13.7041 18.8855 14.503 19.3248 15.1931C19.5176 15.4907 19.7471 15.7628 20.0078 16.0031C20.2838 16.2431 20.5898 16.4461 20.9178 16.6081C21.252 16.7814 21.5998 16.9268 21.9578 17.0431C22.3685 17.1649 22.7921 17.2381 23.2198 17.2611C23.8766 17.2985 24.5352 17.2293 25.1698 17.0561C26.1223 16.8154 27.0304 16.4245 27.8598 15.8981C28.0324 15.7819 28.2316 15.7113 28.4388 15.6931L28.4408 15.6961ZM18.6378 10.7811H27.2268C27.1678 9.71307 26.7468 8.69707 26.0338 7.89907C25.6507 7.49182 25.1825 7.1739 24.6627 6.9679C24.1428 6.76189 23.584 6.67284 23.0258 6.70707C22.2124 6.68349 21.4086 6.8886 20.7058 7.29907C20.0858 7.66707 19.5728 8.19107 19.2168 8.81807C18.8779 9.42021 18.68 10.0914 18.6378 10.7811ZM82.4638 15.6961C82.6567 15.6763 82.8514 15.7031 83.0317 15.7743C83.212 15.8455 83.3726 15.9589 83.4998 16.1051C83.6348 16.2663 83.7258 16.4597 83.7639 16.6664C83.8021 16.8732 83.7863 17.0863 83.7178 17.2851C83.6671 17.413 83.5966 17.5321 83.5088 17.6381C83.0774 18.1077 82.5566 18.4864 81.9768 18.7521L81.8638 18.8091C81.8498 18.8111 81.8348 18.8111 81.8198 18.8091C81.4098 19.0031 80.9828 19.1591 80.5438 19.2751C79.5188 19.6014 78.4505 19.7717 77.3748 19.7801C75.9849 19.8093 74.612 19.4698 73.3958 18.7961C72.2585 18.1486 71.3284 17.1915 70.7138 16.0361C70.0584 14.7735 69.7307 13.3664 69.7608 11.9441C69.7408 10.6031 70.0578 9.27807 70.6838 8.09107C71.2785 6.96336 72.1655 6.0163 73.2518 5.34907C74.3898 4.65807 75.6998 4.30507 77.0308 4.33007C78.5048 4.25875 79.9591 4.69189 81.1538 5.55807C82.2009 6.37553 82.9949 7.4729 83.4438 8.72307C83.9291 10.058 84.1722 11.4687 84.1618 12.8891H72.6608C72.6686 13.7075 72.907 14.5071 73.3488 15.1961C73.5416 15.4937 73.771 15.7658 74.0318 16.0061C74.3078 16.2461 74.6138 16.4491 74.9418 16.6111C75.2763 16.7844 75.6245 16.9299 75.9828 17.0461C76.3922 17.1676 76.8144 17.2408 77.2408 17.2641C77.8993 17.3019 78.5595 17.2326 79.1958 17.0591C80.1483 16.8184 81.0564 16.4275 81.8858 15.9011C82.0584 15.7849 82.2566 15.7143 82.4638 15.6961ZM72.6608 10.7811H81.2498C81.1887 9.71332 80.7683 8.69763 80.0568 7.89907C79.6728 7.49207 79.2048 7.17507 78.6848 6.96807C78.1652 6.7621 77.6068 6.67266 77.0488 6.70607C76.2354 6.68249 75.4316 6.8876 74.7288 7.29807C74.1088 7.66607 73.5958 8.19007 73.2398 8.81707C72.8993 9.41852 72.7012 10.0901 72.6608 10.7801V10.7811Z" fill="white"/>
<path d="M48.4698 14.8468L48.3828 3.39383V3.24183C48.3881 3.03253 48.4115 2.82408 48.4528 2.61883C48.5848 1.88083 48.9908 1.21983 49.5888 0.768826C50.0568 0.440826 50.6148 0.266827 51.1868 0.267827L51.1478 7.98183L51.2658 15.9658C51.2858 16.1538 51.3418 16.3348 51.4308 16.5008C51.5008 16.6188 51.5888 16.7238 51.6918 16.8138C51.7887 16.8954 51.8955 16.9643 52.0098 17.0188C52.3147 17.1533 52.6527 17.194 52.9808 17.1358C53.1291 17.1063 53.2747 17.0642 53.4158 17.0098C53.8918 16.8538 54.3476 16.642 54.7738 16.3788L55.1788 16.1218L55.2528 16.0788C55.3492 16.0271 55.4517 15.9875 55.5578 15.9608C55.7412 15.9196 55.9314 15.9196 56.1148 15.9608C56.3448 16.0238 56.5528 16.1528 56.7108 16.3308C56.8514 16.4889 56.9457 16.6827 56.9833 16.8909C57.0209 17.0991 57.0003 17.3136 56.9238 17.5108C56.8758 17.6678 56.7148 18.0508 55.7878 18.6338C55.21 19.0043 54.5828 19.2915 53.9248 19.4868C53.4608 19.6369 52.9796 19.7276 52.4928 19.7568C52.1708 19.7568 50.6248 19.8138 49.5678 18.7468C48.6188 17.7888 48.5408 16.4088 48.4838 15.3778L48.4698 14.8468Z" fill="white"/>
<path d="M50.2849 6.60192L52.3529 6.52792C53.1099 6.53092 53.8399 6.24592 54.3949 5.73092C54.841 5.28663 55.0997 4.68823 55.1179 4.05892H50.3289L50.2849 6.60092V6.60192ZM59.8629 14.8469L59.7759 3.39392V3.24192C59.7767 3.03233 59.8002 2.82346 59.8459 2.61892C59.9759 1.87992 60.3829 1.21892 60.9819 0.768916C61.4479 0.439916 62.0049 0.263916 62.5749 0.263916L62.5359 7.97792L62.6539 15.9619C62.6739 16.1492 62.7299 16.3309 62.8189 16.4969C62.8875 16.6141 62.9743 16.7198 63.0759 16.8099C63.1743 16.8913 63.2825 16.9602 63.3979 17.0149C63.7009 17.1499 64.0373 17.191 64.3639 17.1329C64.5124 17.104 64.6579 17.0618 64.7989 17.0069C65.2759 16.8499 65.7329 16.6379 66.1619 16.3759C66.2709 16.2979 66.3709 16.2409 66.5629 16.1189L66.6409 16.0749C66.7719 16.0008 66.9164 15.9533 67.0659 15.9353C67.2154 15.9173 67.367 15.929 67.5119 15.9699C67.7429 16.0319 67.9499 16.1609 68.1079 16.3399C68.2316 16.4796 68.3197 16.647 68.3649 16.8279C68.4202 17.0574 68.4067 17.2981 68.3259 17.5199C68.2739 17.6769 68.1169 18.0599 67.1899 18.6429C66.607 19.0106 65.9755 19.295 65.3139 19.4879C64.8513 19.6384 64.3715 19.7291 63.8859 19.7579C63.5599 19.7579 62.0139 19.8139 60.9609 18.7479C60.0079 17.7899 59.9339 16.4099 59.8729 15.3789L59.8639 14.8479L59.8629 14.8469ZM3.0309 18.9519C2.8829 19.2469 2.6409 19.4849 2.3429 19.6269C2.1319 19.7329 1.8959 19.7809 1.6599 19.7669C1.4239 19.7529 1.1959 19.6769 0.998896 19.5469C0.801896 19.4169 0.641896 19.2369 0.536896 19.0249C0.431896 18.8129 0.382896 18.5779 0.397896 18.3419C0.301896 12.8349 0.367896 8.79092 0.454896 7.61592C0.498831 6.95232 0.686135 6.30614 1.0039 5.72192C1.21208 5.29452 1.53648 4.93443 1.9399 4.68292C2.3429 4.43192 2.8089 4.29792 3.2849 4.29892L3.2069 6.63692C3.3199 6.40992 3.4539 6.19492 3.6079 5.99292C4.2169 5.23892 5.0259 4.67292 5.9419 4.35892C6.8579 4.04492 7.8449 3.99592 8.7879 4.21692C9.78861 4.39806 10.7206 4.84972 11.4829 5.52292C11.8659 5.86092 12.1949 6.25592 12.4579 6.69392C13.1019 7.78692 13.1329 8.87092 13.1809 10.6599V12.2619C13.2159 13.6989 13.2249 15.1739 13.1809 16.6889C13.1809 17.5599 13.1379 18.3559 12.5759 18.9309C12.185 19.3209 11.6805 19.5768 11.1349 19.6619C10.9311 19.6892 10.7247 19.6892 10.5209 19.6619C10.5949 14.4819 10.5599 10.6599 10.4819 9.64992C10.46 8.75066 10.0976 7.89324 9.4679 7.25092C8.7588 6.585 7.82843 6.20495 6.8559 6.18392C6.3359 6.20192 5.8249 6.32792 5.3549 6.55192C4.88504 6.77619 4.46687 7.0956 4.1269 7.48992C3.86453 7.78194 3.65536 8.11769 3.5089 8.48192C3.35266 8.87727 3.26997 9.29784 3.2649 9.72292L3.1819 18.3509C3.17769 18.5597 3.12713 18.765 3.0339 18.9519H3.0309Z" fill="white"/>
</svg>
