<svg width="49" height="46" viewBox="0 0 49 46" fill="none" xmlns="http://www.w3.org/2000/svg">
<path fill-rule="evenodd" clip-rule="evenodd" d="M38.8837 17.1787H29.6098V26.4526H20.3359V45.0003H29.6098V35.7264H38.8837V26.4526H48.1575V17.1787H38.8837Z" fill="white" stroke="white" stroke-miterlimit="10"/>
<path fill-rule="evenodd" clip-rule="evenodd" d="M17.9355 4.02564H4.02539V22.5734H13.2992V13.2995H17.9355C19.165 13.2992 20.3441 12.8106 21.2135 11.9412C22.0829 11.0718 22.5715 9.89273 22.5718 8.66322C22.573 8.05398 22.4539 7.4505 22.2213 6.88739C21.9888 6.32428 21.6473 5.81262 21.2166 5.38177C20.7859 4.95091 20.2743 4.60933 19.7113 4.37661C19.1482 4.14389 18.5448 4.02462 17.9355 4.02564Z" fill="white" stroke="white" stroke-miterlimit="10"/>
<path fill-rule="evenodd" clip-rule="evenodd" d="M14.7148 0.804938H0.804688V19.3527H10.0785V10.0788H14.7148C15.9443 10.0785 17.1234 9.58988 17.9928 8.72048C18.8622 7.85109 19.3508 6.67203 19.3511 5.44251C19.3523 4.83327 19.2332 4.22979 19.0006 3.66669C18.7681 3.10358 18.4266 2.59192 17.9959 2.16106C17.5652 1.73021 17.0536 1.38862 16.4906 1.15591C15.9275 0.923192 15.3241 0.803922 14.7148 0.804938Z" fill="#CDCDCD"/>
<path d="M10.8836 20.1574H0V0H14.715C16.1574 0.00339544 17.5397 0.577886 18.5596 1.5978C19.5795 2.61772 20.154 4.00005 20.1574 5.44243C20.154 6.88481 19.5795 8.26714 18.5596 9.28706C17.5397 10.307 16.1574 10.8815 14.715 10.8849H10.8836V20.1574ZM1.60972 18.5477H9.27386V9.27386H14.7163C15.7317 9.27148 16.7049 8.86705 17.4229 8.14904C18.1409 7.43102 18.5453 6.45786 18.5477 5.44243C18.5453 4.427 18.1409 3.45384 17.4229 2.73583C16.7049 2.01781 15.7317 1.61338 14.7163 1.611H1.60972V18.5477Z" fill="white"/>
<path d="M17.4531 15.2793H21.2524V19.0786H17.4531V15.2793Z" fill="white" stroke="white" stroke-miterlimit="10"/>
<path fill-rule="evenodd" clip-rule="evenodd" d="M35.6615 13.959H26.3876V23.2328H17.1138V41.7806H26.3876V32.5067H35.6615V23.2328H44.9353V13.959H35.6615Z" fill="#CDCDCD"/>
<path d="M27.1986 42.5853H16.3086V22.4279H25.5825V13.1541H45.7399V24.0376H36.466V33.3115H27.1986V42.5853ZM17.9247 40.9756H25.5825V31.7018H34.8563V22.4279H44.1302V14.7638H27.1986V24.0376H17.9183L17.9247 40.9756Z" fill="white"/>
</svg>
