<svg width="51" height="48" viewBox="0 0 51 48" fill="none" xmlns="http://www.w3.org/2000/svg">
<path fill-rule="evenodd" clip-rule="evenodd" d="M40.6006 17.9421H30.9145V27.6282H21.2285V47.0002H30.9145V37.3142H40.6006V27.6282H50.2866V17.9421H40.6006Z" fill="#757693" stroke="#757693" stroke-miterlimit="10"/>
<path fill-rule="evenodd" clip-rule="evenodd" d="M18.7227 4.2046H4.19434V23.5767H13.8804V13.8906H18.7227C20.0069 13.8903 21.2383 13.38 22.1464 12.4719C23.0544 11.5639 23.5647 10.3324 23.5651 9.04829C23.5663 8.41197 23.4419 7.78167 23.199 7.19353C22.9561 6.6054 22.5995 6.071 22.1496 5.62099C21.6997 5.17099 21.1654 4.81422 20.5774 4.57116C19.9893 4.32811 19.359 4.20353 18.7227 4.2046Z" fill="#757693" stroke="#757693" stroke-miterlimit="10"/>
<path fill-rule="evenodd" clip-rule="evenodd" d="M15.3594 0.840583H0.831055V20.2126H10.5171V10.5266H15.3594C16.6436 10.5263 17.875 10.016 18.7831 9.10793C19.6911 8.19989 20.2014 6.96843 20.2018 5.68427C20.203 5.04796 20.0786 4.41765 19.8357 3.82952C19.5928 3.24138 19.2362 2.70699 18.7863 2.25698C18.3364 1.80697 17.8021 1.45021 17.2141 1.20715C16.626 0.964092 15.9957 0.839521 15.3594 0.840583Z" fill="#FFFFFF"/>
<path d="M11.3575 21.0533H-0.00976562V0H15.3592C16.8657 0.00354635 18.3095 0.60357 19.3747 1.66882C20.44 2.73407 21.04 4.17783 21.0435 5.68432C21.04 7.1908 20.44 8.63457 19.3747 9.69982C18.3095 10.7651 16.8657 11.3651 15.3592 11.3686H11.3575V21.0533ZM1.67149 19.3721H9.67626V9.68603H15.3606C16.4211 9.68355 17.4375 9.26114 18.1875 8.51121C18.9374 7.76129 19.3598 6.74487 19.3623 5.68432C19.3598 4.62376 18.9374 3.60735 18.1875 2.85742C17.4375 2.10749 16.4211 1.68509 15.3606 1.6826H1.67149V19.3721Z" fill="#757693"/>
<path d="M18.2183 15.9585H22.1864V19.9266H18.2183V15.9585Z" fill="#757693" stroke="#757693" stroke-miterlimit="10"/>
<path fill-rule="evenodd" clip-rule="evenodd" d="M37.2373 14.5793H27.5513V24.2654H17.8652V43.6374H27.5513V33.9514H37.2373V24.2654H46.9233V14.5793H37.2373Z" fill="#FFFFFF"/>
<path d="M28.3984 44.4781H17.0244V23.4248H26.7104V13.7388H47.7638V25.1061H38.0777V34.7921H28.3984V44.4781ZM18.7124 42.7969H26.7104V33.1108H36.3965V23.4248H46.0825V15.42H28.3984V25.1061H18.7057L18.7124 42.7969Z" fill="#757693"/>
</svg>
